<svg width="123" height="84" viewBox="0 0 123 84" fill="none" xmlns="http://www.w3.org/2000/svg">
<path d="M42.8102 27.7011C44.6336 26.6484 46.8801 26.6484 48.7034 27.7011L56.456 32.177C58.2794 33.2298 59.4026 35.1753 59.4026 37.2807V46.2326C59.4026 48.3381 58.2794 50.2836 56.456 51.3363L48.7034 55.8123C46.8801 56.865 44.6336 56.865 42.8102 55.8123L35.0576 51.3363C33.2343 50.2836 32.111 48.3381 32.111 46.2326V37.2807C32.111 35.1753 33.2343 33.2298 35.0576 32.177L42.8102 27.7011Z" fill="#312F3D"/>
<path d="M49.2699 35.232C49.2699 34.7868 48.7715 34.7868 48.55 34.8425C48.8601 34.5976 49.2238 34.657 49.353 34.7312L52.3478 36.1996C52.6332 36.3396 52.8142 36.6307 52.8142 36.9497V46.6101C52.8142 46.9334 52.6283 47.2276 52.3372 47.3653L49.5191 48.6978C49.3253 48.7812 48.9044 48.9871 48.55 48.6978C48.993 48.7812 49.233 48.4659 49.2699 48.2526V35.232Z" fill="url(#paint0_linear_981_7241)"/>
<path d="M48.5859 34.8343C48.821 34.7878 49.2699 34.8093 49.2699 35.2318V38.557L40.1902 45.4259C40.0315 45.5459 39.8081 45.526 39.6729 45.3797L38.7371 44.3671C38.5905 44.2085 38.6008 43.9602 38.76 43.8143L48.55 34.8423L48.5859 34.8343Z" fill="url(#paint1_linear_981_7241)"/>
<path d="M49.2699 44.983L40.1902 38.1141C40.0315 37.994 39.8081 38.014 39.6729 38.1602L38.7371 39.1728C38.5905 39.3315 38.6008 39.5798 38.76 39.7257L48.55 48.6977V48.6977C48.993 48.7812 49.233 48.4658 49.2699 48.2525V44.983Z" fill="url(#paint2_linear_981_7241)"/>
<path d="M73.27 27.7011C75.0933 26.6484 77.3398 26.6484 79.1632 27.7011L86.9158 32.177C88.7391 33.2298 89.8624 35.1753 89.8624 37.2807V46.2326C89.8624 48.3381 88.7391 50.2836 86.9158 51.3363L79.1632 55.8123C77.3398 56.865 75.0933 56.865 73.27 55.8123L65.5174 51.3363C63.694 50.2836 62.5708 48.3381 62.5708 46.2326V37.2807C62.5708 35.1753 63.694 33.2298 65.5174 32.177L73.27 27.7011Z" fill="#312F3D"/>
<path d="M68.8978 40.9719C68.4645 41.4052 68.4645 42.1079 68.8979 42.5413L75.5619 49.2054C75.9953 49.6387 76.698 49.6387 77.1314 49.2054L83.7954 42.5413C84.2288 42.1079 84.2288 41.4052 83.7954 40.9719L77.1314 34.3078C76.698 33.8744 75.9953 33.8744 75.5619 34.3078L68.8978 40.9719Z" fill="#EE513B"/>
<path d="M74.2085 47.8303L73.5336 47.1555L75.2766 45.4125C75.2061 45.2613 75.1667 45.0926 75.1667 44.9147C75.1667 44.4096 75.484 43.9786 75.9302 43.8103V39.5466C75.484 39.3783 75.1667 38.9473 75.1667 38.4423C75.1667 37.7906 75.695 37.2623 76.3467 37.2623C76.9983 37.2623 77.5266 37.7906 77.5266 38.4423C77.5266 38.9002 77.2658 39.2971 76.8846 39.4927V43.8045L78.5507 42.1384C78.4836 41.9902 78.4463 41.8257 78.4463 41.6524C78.4463 41.0008 78.9746 40.4725 79.6263 40.4725C80.2779 40.4725 80.8062 41.0008 80.8062 41.6524C80.8062 42.3041 80.2779 42.8324 79.6263 42.8324C79.4996 42.8324 79.3776 42.8124 79.2633 42.7755L77.4739 44.5649C77.5082 44.6754 77.5266 44.7929 77.5266 44.9147C77.5266 45.5663 76.9983 46.0946 76.3467 46.0946C76.2249 46.0946 76.1074 46.0762 75.9969 46.0419L74.2085 47.8303Z" fill="white"/>
<path d="M57.8102 53.2812C59.6336 52.2285 61.8801 52.2285 63.7034 53.2812L71.456 57.7571C73.2794 58.8099 74.4026 60.7554 74.4026 62.8608V71.8127C74.4026 73.9181 73.2794 75.8637 71.456 76.9164L63.7034 81.3923C61.8801 82.4451 59.6336 82.4451 57.8102 81.3923L50.0576 76.9164C48.2343 75.8637 47.111 73.9181 47.111 71.8127V62.8608C47.111 60.7554 48.2343 58.8099 50.0576 57.7571L57.8102 53.2812Z" fill="#312F3D"/>
<path d="M62.274 67.3231C62.274 66.5107 61.5948 65.8521 60.7568 65.8521C59.9189 65.8521 59.2396 66.5107 59.2396 67.3231C59.2396 68.1356 59.9189 68.7942 60.7568 68.7942C61.5948 68.7942 62.274 68.1356 62.274 67.3231Z" fill="#53C1DE"/>
<path fill-rule="evenodd" clip-rule="evenodd" d="M65.6843 64.592C66.0048 63.3297 66.4075 60.9887 64.9877 60.1951C63.5746 59.4049 61.7357 60.919 60.7647 61.8279C59.7965 60.9281 57.906 59.4204 56.4874 60.2166C55.0749 61.0094 55.5105 63.3115 55.838 64.5818C54.5203 64.9447 52.2615 65.7263 52.2615 67.3231C52.2615 68.9154 54.5179 69.7658 55.8278 70.1283C55.4991 71.4056 55.0853 73.6748 56.4997 74.4659C57.9235 75.2619 59.8082 73.7901 60.7882 72.8713C61.7654 73.7855 63.5867 75.2669 65.0001 74.4737C66.4179 73.6779 66.0486 71.3683 65.7211 70.0907C66.9909 69.7274 69.2522 68.8956 69.2522 67.3231C69.2522 65.7416 66.9813 64.9537 65.6843 64.592ZM65.5234 69.4136C65.3084 68.7535 65.0181 68.0517 64.663 67.3266C65.002 66.6187 65.2809 65.9259 65.49 65.2701C66.4407 65.5373 68.5264 66.1481 68.5264 67.3231C68.5264 68.5091 66.525 69.1257 65.5234 69.4136ZM64.6364 73.8646C63.5818 74.4564 62.0154 73.0398 61.2936 72.3665C61.7724 71.8588 62.2509 71.2685 62.7178 70.6131C63.5393 70.5425 64.3153 70.4269 65.019 70.2692C65.2495 71.1729 65.6956 73.2701 64.6364 73.8646ZM56.8623 73.8561C55.8077 73.2665 56.2897 71.2416 56.5316 70.3007C57.2275 70.4499 57.9979 70.5573 58.8212 70.6221C59.2913 71.2634 59.7836 71.853 60.2797 72.3692C59.6667 72.9441 57.9219 74.4485 56.8623 73.8561ZM52.9873 67.3231C52.9873 66.1327 55.0604 65.5263 56.0329 65.2597C56.2455 65.9302 56.5244 66.6313 56.861 67.3402C56.5201 68.0598 56.2372 68.772 56.0226 69.4504C55.0954 69.1931 52.9873 68.5143 52.9873 67.3231ZM56.8511 60.8257C57.91 60.2313 59.5532 61.6788 60.2561 62.3302C59.7625 62.8442 59.2747 63.4292 58.8088 64.0669C58.0097 64.1387 57.2447 64.254 56.5415 64.4085C56.2777 63.384 55.7932 61.4193 56.8511 60.8257ZM63.2371 64.8318C63.7792 64.8982 64.2986 64.9864 64.7863 65.0944C64.6399 65.5494 64.4574 66.0252 64.2425 66.5129C63.9309 65.9397 63.5965 65.3781 63.2371 64.8318ZM60.765 62.8332C61.0997 63.1848 61.435 63.5775 61.7648 64.0035C61.0958 63.9728 60.4257 63.9727 59.7567 64.003C60.0868 63.581 60.4249 63.1889 60.765 62.8332ZM57.2774 66.5124C57.066 66.0263 56.8852 65.5484 56.7375 65.0869C57.2223 64.9817 57.7393 64.8958 58.2779 64.8305C57.9175 65.3756 57.5836 65.937 57.2774 66.5124ZM58.2934 69.866C57.7369 69.8057 57.2121 69.7242 56.7275 69.6219C56.8775 69.1522 57.0624 68.664 57.2782 68.1675C57.5886 68.7489 57.9276 69.3157 58.2934 69.866ZM60.785 71.8628C60.441 71.5029 60.0979 71.1048 59.7628 70.6766C60.4356 70.7022 61.1098 70.7023 61.7825 70.6732C61.4516 71.1092 61.1175 71.5078 60.785 71.8628ZM64.2494 68.1422C64.4765 68.6441 64.6679 69.1297 64.82 69.5914C64.3273 69.7004 63.7955 69.7882 63.235 69.8533C63.5971 69.2968 63.9368 68.7264 64.2494 68.1422ZM62.3128 69.9386C61.2836 70.0099 60.248 70.0092 59.2185 69.9445C58.6335 69.1159 58.1128 68.2446 57.6632 67.34C58.1106 66.4373 58.6275 65.5677 59.2098 64.7405C60.2401 64.665 61.2766 64.6648 62.3069 64.7409C62.8841 65.5681 63.4003 66.4355 63.858 67.33C63.4057 68.2323 62.8861 69.1037 62.3128 69.9386ZM64.6252 60.8047C65.6845 61.3971 65.213 63.501 64.9816 64.4158C64.2767 64.2581 63.5112 64.1407 62.7098 64.0678C62.2429 63.4233 61.7592 62.8372 61.2736 62.3299C61.9856 61.6644 63.5762 60.2182 64.6252 60.8047Z" fill="#53C1DE"/>
<path d="M12.8102 27.7011C14.6336 26.6484 16.8801 26.6484 18.7034 27.7011L26.456 32.177C28.2794 33.2298 29.4026 35.1753 29.4026 37.2807V46.2326C29.4026 48.3381 28.2794 50.2836 26.456 51.3363L18.7034 55.8123C16.8801 56.865 14.6336 56.865 12.8102 55.8123L5.05763 51.3363C3.23426 50.2836 2.11101 48.3381 2.11101 46.2326V37.2807C2.11101 35.1753 3.23426 33.2298 5.05763 32.177L12.8102 27.7011Z" fill="#312F3D"/>
<path d="M104.049 27.7011C105.872 26.6484 108.119 26.6484 109.942 27.7011L117.694 32.177C119.518 33.2298 120.641 35.1753 120.641 37.2807V46.2326C120.641 48.3381 119.518 50.2836 117.694 51.3363L109.942 55.8123C108.119 56.865 105.872 56.865 104.049 55.8123L96.2961 51.3363C94.4727 50.2836 93.3495 48.3381 93.3495 46.2326V37.2807C93.3495 35.1753 94.4727 33.2298 96.2961 32.177L104.049 27.7011Z" fill="#312F3D"/>
<circle cx="106.995" cy="41.9115" r="7.09449" fill="#8892BF"/>
<path d="M106.204 38.871H107.056L106.815 40.1501H107.58C108 40.1591 108.312 40.2528 108.518 40.4314C108.728 40.6099 108.789 40.9493 108.703 41.4494L108.29 43.6795H107.426L107.821 41.5498C107.862 41.3265 107.849 41.1681 107.784 41.0743C107.718 40.9806 107.576 40.9337 107.358 40.9337L106.673 40.927L106.167 43.6795H105.316L106.204 38.871Z" fill="white"/>
<path fill-rule="evenodd" clip-rule="evenodd" d="M102.303 40.1501H103.957C104.442 40.1546 104.794 40.3064 105.012 40.6055C105.23 40.9046 105.302 41.3132 105.227 41.8311C105.199 42.0678 105.135 42.2999 105.036 42.5276C104.942 42.7553 104.81 42.9607 104.641 43.1437C104.436 43.3759 104.216 43.5232 103.981 43.5858C103.747 43.6483 103.504 43.6795 103.253 43.6795H102.513L102.279 44.952H101.421L102.303 40.1501ZM102.655 42.9227L103.024 40.9203H103.148C103.194 40.9203 103.241 40.918 103.29 40.9136C103.619 40.9092 103.893 40.9427 104.111 41.0141C104.333 41.0855 104.407 41.3556 104.333 41.8244C104.242 42.3826 104.066 42.7084 103.802 42.8022C103.539 42.8915 103.21 42.9339 102.815 42.9294H102.729C102.704 42.9294 102.68 42.9272 102.655 42.9227Z" fill="white"/>
<path fill-rule="evenodd" clip-rule="evenodd" d="M111.27 40.1501H109.617L108.735 44.952H109.592L109.827 43.6795H110.567C110.818 43.6795 111.061 43.6483 111.295 43.5858C111.53 43.5232 111.75 43.3759 111.955 43.1437C112.124 42.9607 112.255 42.7553 112.35 42.5276C112.449 42.2999 112.513 42.0678 112.541 41.8311C112.615 41.3132 112.543 40.9046 112.325 40.6055C112.107 40.3064 111.756 40.1546 111.27 40.1501ZM110.338 40.9203L109.969 42.9227C109.993 42.9272 110.018 42.9294 110.043 42.9294H110.129C110.524 42.9339 110.853 42.8915 111.116 42.8022C111.379 42.7084 111.556 42.3826 111.647 41.8244C111.721 41.3556 111.647 41.0855 111.425 41.0141C111.207 40.9427 110.933 40.9092 110.604 40.9136C110.555 40.918 110.508 40.9203 110.462 40.9203H110.338Z" fill="white"/>
<path d="M27.8102 52.9168C29.6336 51.8641 31.8801 51.8641 33.7034 52.9168L41.456 57.3927C43.2794 58.4455 44.4026 60.391 44.4026 62.4964V71.4483C44.4026 73.5538 43.2794 75.4993 41.456 76.552L33.7034 81.028C31.8801 82.0807 29.6336 82.0807 27.8102 81.028L20.0576 76.552C18.2343 75.4993 17.111 73.5538 17.111 71.4483V62.4964C17.111 60.391 18.2343 58.4455 20.0576 57.3927L27.8102 52.9168Z" fill="#312F3D"/>
<path d="M23.3932 62.0229L30.7568 74.6463L38.1205 62.0229H35.2276L30.7568 69.6496L26.286 62.0229H23.3932Z" fill="#41B883"/>
<path d="M26.2861 62.0229L30.7568 69.6496L35.2276 62.0229H32.5978L30.7912 65.1854L28.9159 62.0229H26.2861Z" fill="#35495E"/>
<path d="M88.8102 53.2812C90.6336 52.2285 92.8801 52.2285 94.7034 53.2812L102.456 57.7571C104.279 58.8099 105.403 60.7554 105.403 62.8608V71.8127C105.403 73.9181 104.279 75.8637 102.456 76.9164L94.7034 81.3923C92.8801 82.4451 90.6336 82.4451 88.8102 81.3923L81.0576 76.9164C79.2343 75.8637 78.111 73.9181 78.111 71.8127V62.8608C78.111 60.7554 79.2343 58.8099 81.0576 57.7571L88.8102 53.2812Z" fill="#312F3D"/>
<path d="M92.3686 60.557C91.9982 60.3487 91.5154 60.3496 91.1447 60.557C89.2883 61.5815 87.4318 62.6063 85.575 63.6304C85.2137 63.8204 84.97 64.2084 84.9739 64.6112V70.8014C84.9713 71.2119 85.2275 71.6037 85.5982 71.7912C86.1315 72.0749 86.6497 72.3875 87.1926 72.6523C87.8198 72.9605 88.6045 73.0286 89.2394 72.7072C89.7547 72.4408 89.9836 71.8484 89.983 71.3039C89.9871 69.261 89.9836 67.218 89.9846 65.1751C89.9968 65.0843 89.9287 64.9873 89.8296 64.9894C89.5924 64.9857 89.3548 64.9873 89.1176 64.9888C89.0279 64.9803 88.9404 65.0548 88.9472 65.1449C88.944 67.1747 88.9478 69.2051 88.9453 71.2351C88.9504 71.516 88.7607 71.7859 88.4901 71.8807C87.8651 72.0998 86.081 70.9414 86.081 70.9414C86.0156 70.9111 85.974 70.8401 85.9804 70.7696C85.9804 68.7273 85.9807 66.6849 85.9804 64.6429C85.9714 64.5606 86.0221 64.4864 86.0977 64.4528C87.9481 63.4344 89.7975 62.4133 91.6478 61.3942C91.7121 61.3513 91.8017 61.3515 91.8658 61.3945C93.7161 62.4133 95.5658 63.4334 97.4165 64.4519C97.4924 64.4855 97.5409 64.5609 97.5332 64.6429C97.5329 66.6849 97.5338 68.7273 97.5326 70.7693C97.5381 70.8415 97.5007 70.9116 97.4332 70.9433C95.6001 71.9563 93.7462 72.9365 91.9297 73.9789C91.8505 74.0244 91.7607 74.0759 91.6719 74.0258C91.1942 73.7616 90.7223 73.487 90.2463 73.2203C90.1945 73.188 90.1286 73.1741 90.0746 73.2102C89.8611 73.3227 89.6604 73.4138 89.4152 73.5109C89.0709 73.6472 89.126 73.7029 89.4364 73.8838C89.9932 74.1989 90.551 74.5127 91.1077 74.8282C91.4742 75.0569 91.9667 75.0732 92.3451 74.8618C94.2019 73.8386 96.058 72.8141 97.9151 71.7909C98.2848 71.6024 98.5423 71.2122 98.5397 70.8013V64.6112C98.5433 64.2166 98.3089 63.8355 97.9585 63.6426C96.0956 62.6131 94.2318 61.5859 92.3686 60.557Z" fill="#8CC84B"/>
<path d="M95.1701 65.2046C94.4414 64.8148 93.5744 64.794 92.7646 64.8449C92.1796 64.9027 91.5642 65.0642 91.138 65.4836C90.7008 65.9052 90.6056 66.586 90.8133 67.1363C90.9621 67.5252 91.3367 67.7782 91.724 67.9119C92.223 68.0881 92.747 68.1425 93.2713 68.197C93.7494 68.2467 94.2277 68.2964 94.6873 68.4385C94.875 68.5007 95.0937 68.5959 95.1512 68.8001C95.2042 69.042 95.146 69.3232 94.9496 69.4912C94.3258 69.985 92.5905 69.9094 91.9741 69.5208C91.725 69.3552 91.6176 69.0621 91.5739 68.7828C91.5691 68.6958 91.499 68.616 91.4045 68.6226C91.1679 68.6198 90.9313 68.6204 90.6947 68.6223C90.6121 68.6153 90.5263 68.6741 90.5217 68.7583C90.4731 70.0375 91.6479 70.5952 92.7502 70.718C93.3799 70.778 94.0235 70.7746 94.6436 70.6394C95.1097 70.5333 95.5771 70.3379 95.898 69.9788C96.2937 69.5424 96.3715 68.8928 96.194 68.3493C96.0584 67.9437 95.6706 67.6836 95.2743 67.5497C94.7353 67.3649 94.0966 67.2656 93.6084 67.2191C92.8989 67.1515 92.0557 67.1791 91.8549 66.7129C91.7748 66.4687 91.843 66.1656 92.0673 66.0154C92.6609 65.6128 93.869 65.6662 94.4838 65.967C94.7661 66.1084 94.9297 66.3987 94.9972 66.6918C95.0097 66.7779 95.0676 66.8677 95.1673 66.864C95.4022 66.8686 95.6373 66.8652 95.8722 66.8655C95.9529 66.8712 96.0413 66.8256 96.0571 66.743C96.0471 66.1304 95.7343 65.5034 95.1701 65.2046Z" fill="#8CC84B"/>
<path d="M57.8102 2.06561C59.6336 1.01289 61.8801 1.01289 63.7034 2.06561L71.456 6.54155C73.2794 7.59428 74.4026 9.53979 74.4026 11.6452V20.5971C74.4026 22.7026 73.2794 24.6481 71.456 25.7008L63.7034 30.1768C61.8801 31.2295 59.6336 31.2295 57.8102 30.1768L50.0576 25.7008C48.2343 24.6481 47.111 22.7026 47.111 20.5971V11.6452C47.111 9.53979 48.2343 7.59428 50.0576 6.54155L57.8102 2.06561Z" fill="#312F3D"/>
<rect x="54.655" y="10.0193" width="12.2036" height="12.2036" fill="#FFCA28"/>
<path d="M62.0643 20.169L62.9629 19.5745C63.0333 19.7957 63.4792 20.3211 64.0424 20.3211C64.6057 20.3211 64.8672 20.0135 64.8672 19.8095C64.8672 19.2537 64.292 19.0578 64.0158 18.9637C63.9708 18.9483 63.9337 18.9357 63.9083 18.9246C63.8953 18.919 63.8756 18.9115 63.8504 18.9018C63.5432 18.7844 62.4097 18.3514 62.4097 17.0961C62.4097 15.7134 63.744 15.5544 64.0458 15.5544C64.2432 15.5544 65.1924 15.5786 65.6651 16.467L64.7934 17.0754C64.6023 16.6882 64.2848 16.5603 64.0893 16.5603C63.6066 16.5603 63.506 16.9143 63.506 17.0754C63.506 17.5274 64.0305 17.73 64.4734 17.9011C64.5893 17.9459 64.6996 17.9885 64.7934 18.0328C65.2762 18.261 65.9869 18.6343 65.9869 19.8095C65.9869 20.3982 65.4932 21.3512 64.2503 21.3512C62.5807 21.3512 62.1381 20.3488 62.0643 20.169Z" fill="#3E3E3E"/>
<path d="M57.7059 20.2871L58.6424 19.6928C58.7158 19.914 59.0009 20.3216 59.4146 20.3216C59.8284 20.3216 60.0401 19.8967 60.0401 19.6928V15.6852H61.1919V19.6928C61.2105 20.2456 60.9039 21.3512 59.5509 21.3512C58.3069 21.3512 57.7898 20.6118 57.7059 20.2871Z" fill="#3E3E3E"/>
<path d="M27.8102 1.70123C29.6336 0.648506 31.8801 0.648506 33.7034 1.70123L41.456 6.17717C43.2794 7.2299 44.4026 9.17542 44.4026 11.2809V20.2327C44.4026 22.3382 43.2794 24.2837 41.456 25.3364L33.7034 29.8124C31.8801 30.8651 29.6336 30.8651 27.8102 29.8124L20.0576 25.3364C18.2343 24.2837 17.111 22.3382 17.111 20.2327V11.2809C17.111 9.17541 18.2343 7.2299 20.0576 6.17717L27.8102 1.70123Z" fill="#312F3D"/>
<path fill-rule="evenodd" clip-rule="evenodd" d="M31.0579 15.9946C31.0579 14.8275 32.004 13.8813 33.1711 13.8813C34.3382 13.8813 35.2843 14.8275 35.2843 15.9946C35.2843 17.1616 34.3382 18.1078 33.1711 18.1078C32.004 18.1078 31.0579 17.1616 31.0579 15.9946Z" fill="#1ABCFE"/>
<path fill-rule="evenodd" clip-rule="evenodd" d="M26.8315 20.221C26.8315 19.0539 27.7776 18.1078 28.9447 18.1078H31.0579V20.221C31.0579 21.3881 30.1118 22.3342 28.9447 22.3342C27.7776 22.3342 26.8315 21.3881 26.8315 20.221Z" fill="#0ACF83"/>
<path fill-rule="evenodd" clip-rule="evenodd" d="M31.0579 9.65491V13.8813H33.1711C34.3382 13.8813 35.2843 12.9352 35.2843 11.7681C35.2843 10.601 34.3382 9.65491 33.1711 9.65491H31.0579Z" fill="#FF7262"/>
<path fill-rule="evenodd" clip-rule="evenodd" d="M26.8315 11.7681C26.8315 12.9352 27.7776 13.8813 28.9447 13.8813H31.0579V9.65491H28.9447C27.7776 9.65491 26.8315 10.601 26.8315 11.7681Z" fill="#F24E1E"/>
<path fill-rule="evenodd" clip-rule="evenodd" d="M26.8315 15.9946C26.8315 17.1616 27.7776 18.1078 28.9447 18.1078H31.0579V13.8813H28.9447C27.7776 13.8813 26.8315 14.8275 26.8315 15.9946Z" fill="#A259FF"/>
<path d="M88.8102 2.06561C90.6336 1.01289 92.8801 1.01289 94.7034 2.06561L102.456 6.54155C104.279 7.59428 105.403 9.53979 105.403 11.6452V20.5971C105.403 22.7026 104.279 24.6481 102.456 25.7008L94.7034 30.1768C92.8801 31.2295 90.6336 31.2295 88.8102 30.1768L81.0576 25.7008C79.2343 24.6481 78.111 22.7026 78.111 20.5971V11.6452C78.111 9.53979 79.2343 7.59428 81.0576 6.54155L88.8102 2.06561Z" fill="#312F3D"/>
<path fill-rule="evenodd" clip-rule="evenodd" d="M87.1834 22.4087L85.6974 20.5575C85.3399 20.1121 85.1458 19.5644 85.1458 19.0007V12.2973C85.1458 11.4529 85.8214 10.7522 86.6929 10.6927L93.5849 10.2222C94.0856 10.188 94.5832 10.3211 94.9945 10.5992L97.416 12.2363C97.8495 12.5294 98.1077 13.0085 98.1077 13.5197V21.1408C98.1077 21.9672 97.4434 22.6513 96.5901 22.7039L88.9408 23.1747C88.2598 23.2166 87.6016 22.9298 87.1834 22.4087Z" fill="white"/>
<path d="M89.5737 15.6519V15.5641C89.5737 15.3417 89.7519 15.1572 89.9815 15.1418L91.6542 15.0301L93.9673 18.4364V15.4468L93.3719 15.3675V15.3258C93.3719 15.1007 93.5542 14.915 93.7867 14.9031L95.3086 14.8251V15.0441C95.3086 15.1469 95.2322 15.2349 95.1274 15.2526L94.7612 15.3146V20.1561L94.3015 20.3142C93.9175 20.4462 93.49 20.3049 93.2702 19.9732L91.0245 16.5845V19.8188L91.7157 19.9511L91.7061 20.0152C91.6759 20.216 91.5026 20.3679 91.2928 20.3772L89.5737 20.4537C89.551 20.2378 89.7128 20.0446 89.9361 20.0211L90.1622 19.9974V15.685L89.5737 15.6519Z" fill="black"/>
<path fill-rule="evenodd" clip-rule="evenodd" d="M93.6466 11.0669L86.7547 11.5374C86.3418 11.5656 86.0218 11.8975 86.0218 12.2975V19.0009C86.0218 19.3767 86.1512 19.7418 86.3895 20.0387L87.8756 21.89C88.1158 22.1893 88.4939 22.3541 88.8851 22.33L96.5344 21.8592C96.9265 21.835 97.2317 21.5207 97.2317 21.141V13.5199C97.2317 13.285 97.1131 13.0649 96.9139 12.9302L94.4924 11.2931C94.2457 11.1262 93.9471 11.0464 93.6466 11.0669ZM87.0964 12.402C87.0006 12.3311 87.0462 12.1832 87.1666 12.1746L93.693 11.7065C93.9009 11.6916 94.1076 11.7488 94.2757 11.868L95.5852 12.7957C95.6349 12.8309 95.6116 12.907 95.5501 12.9103L88.6386 13.2862C88.4294 13.2976 88.223 13.2361 88.0567 13.113L87.0964 12.402ZM88.3144 14.4646C88.3144 14.24 88.4958 14.0546 88.7278 14.0419L96.0351 13.644C96.2612 13.6317 96.4515 13.8055 96.4515 14.0244V20.6234C96.4515 20.8475 96.2708 21.0328 96.0393 21.046L88.7782 21.4591C88.5266 21.4735 88.3144 21.2801 88.3144 21.0366V14.4646Z" fill="black"/>
<path fill-rule="evenodd" clip-rule="evenodd" d="M23.8953 38.1134C23.9004 38.1317 23.9031 38.1506 23.9031 38.1696V41.1236C23.9031 41.1615 23.8927 41.1988 23.8729 41.2316C23.8532 41.2644 23.8248 41.2916 23.7906 41.3105L21.212 42.7379V45.5673C21.212 45.6443 21.1695 45.7154 21.1 45.7541L15.7176 48.7334C15.7053 48.7402 15.6918 48.7445 15.6784 48.749C15.6734 48.7507 15.6686 48.7536 15.6633 48.755C15.6257 48.7645 15.5861 48.7645 15.5485 48.755C15.5423 48.7534 15.5367 48.7501 15.5308 48.748C15.5185 48.7437 15.5056 48.7399 15.4939 48.7334L10.1126 45.7541C10.0784 45.7352 10.05 45.708 10.0302 45.6752C10.0104 45.6424 10 45.6052 10 45.5673V36.7053C10 36.6859 10.0028 36.667 10.0078 36.6487C10.0095 36.6425 10.0134 36.6369 10.0157 36.6307C10.0199 36.6194 10.0238 36.6078 10.03 36.5973C10.0342 36.5903 10.0403 36.5847 10.0454 36.5782C10.0518 36.5696 10.0577 36.5607 10.0652 36.5532C10.0717 36.547 10.0801 36.5424 10.0874 36.537C10.0955 36.5305 10.1028 36.5235 10.112 36.5184L12.8031 35.0288C12.8372 35.0099 12.8758 35 12.9151 35C12.9544 35 12.993 35.0099 13.0271 35.0288L15.7179 36.5184C15.7268 36.5238 15.735 36.5305 15.7431 36.5367C15.7504 36.5421 15.7585 36.547 15.7649 36.5529C15.7728 36.5607 15.7784 36.5696 15.7851 36.5782C15.7898 36.5847 15.7963 36.5903 15.8002 36.5973C15.8066 36.6081 15.8103 36.6194 15.8148 36.6307C15.817 36.6369 15.8209 36.6425 15.8226 36.649C15.8278 36.6674 15.8304 36.6863 15.8304 36.7053V42.2404L18.0727 40.999V38.1694C18.0727 38.1505 18.0755 38.1314 18.0805 38.1134C18.0825 38.1069 18.0861 38.1012 18.0884 38.095C18.0928 38.0837 18.0968 38.0722 18.1029 38.0617C18.1071 38.0547 18.1133 38.049 18.118 38.0425C18.1248 38.0339 18.1304 38.025 18.1382 38.0175C18.1446 38.0113 18.1528 38.0067 18.16 38.0013C18.1684 37.9949 18.1757 37.9879 18.1847 37.9828L20.876 36.4931C20.9101 36.4742 20.9487 36.4643 20.988 36.4643C21.0274 36.4643 21.066 36.4742 21.1 36.4931L23.7908 37.9828C23.8004 37.9882 23.8076 37.9949 23.816 38.0011C23.823 38.0065 23.8312 38.0113 23.8376 38.0172C23.8454 38.025 23.851 38.0339 23.8578 38.0425C23.8628 38.049 23.869 38.0547 23.8729 38.0617C23.8793 38.0722 23.883 38.0837 23.8874 38.095C23.89 38.1012 23.8936 38.1069 23.8953 38.1134ZM23.4546 40.999V38.5425L22.5129 39.0637L21.212 39.7839V42.2404L23.4546 40.999ZM20.7638 45.4426V42.9845L19.4842 43.6872L15.8302 45.6925V48.1737L20.7638 45.4426ZM10.4486 37.0782V45.4426L15.3816 48.1734V45.6927L12.8045 44.2903L12.8025 44.2892C12.7938 44.2844 12.7866 44.2774 12.7784 44.2715C12.7714 44.2661 12.7633 44.2618 12.7572 44.2559C12.7499 44.2491 12.7443 44.24 12.7381 44.2324C12.7325 44.2252 12.7258 44.219 12.7213 44.2114C12.7163 44.2034 12.7129 44.1929 12.7093 44.1837C12.7056 44.1756 12.7009 44.1681 12.6986 44.1595C12.6958 44.1492 12.6953 44.1382 12.6942 44.1277C12.693 44.1196 12.6908 44.1115 12.6908 44.1035V38.3196L11.3902 37.5991L10.4486 37.0782ZM12.9154 35.4644L10.6734 36.7053L12.9148 37.9462L15.1565 36.705L12.9154 35.4644ZM14.0813 43.2085L15.3819 42.4886V37.0782L14.4402 37.5994L13.1394 38.3196V43.73L14.0813 43.2085ZM20.988 36.9287L18.7464 38.1696L20.988 39.4105L23.2294 38.1694L20.988 36.9287ZM20.7638 39.7839L19.4629 39.0637L18.5212 38.5425V40.999L19.8218 41.7189L20.7638 42.2404V39.7839ZM15.6056 45.3196L18.8936 43.5147L20.5372 42.6127L18.2972 41.3727L15.7182 42.8004L13.3676 44.1016L15.6056 45.3196Z" fill="#FF2D20"/>
<defs>
<linearGradient id="paint0_linear_981_7241" x1="50.6821" y1="34.6664" x2="50.6821" y2="48.847" gradientUnits="userSpaceOnUse">
<stop stop-color="#32B5F1"/>
<stop offset="1" stop-color="#2B9FED"/>
</linearGradient>
<linearGradient id="paint1_linear_981_7241" x1="49.2699" y1="36.456" x2="39.151" y2="44.9497" gradientUnits="userSpaceOnUse">
<stop stop-color="#0F6FB3"/>
<stop offset="0.270551" stop-color="#1279B7"/>
<stop offset="0.421376" stop-color="#1176B5"/>
<stop offset="0.618197" stop-color="#0E69AC"/>
<stop offset="0.855344" stop-color="#0F70AF"/>
<stop offset="1" stop-color="#0F6DAD"/>
</linearGradient>
<linearGradient id="paint2_linear_981_7241" x1="39.2186" y1="38.7096" x2="49.3091" y2="47.0645" gradientUnits="userSpaceOnUse">
<stop stop-color="#1791D2"/>
<stop offset="1" stop-color="#1173C5"/>
</linearGradient>
</defs>
</svg>
