<svg width="123" height="84" viewBox="0 0 123 84" fill="none" xmlns="http://www.w3.org/2000/svg">
<path d="M42.8792 27.7011C44.7026 26.6484 46.9491 26.6484 48.7725 27.7011L56.525 32.177C58.3484 33.2298 59.4716 35.1753 59.4716 37.2807V46.2326C59.4716 48.3381 58.3484 50.2836 56.525 51.3363L48.7725 55.8123C46.9491 56.865 44.7026 56.865 42.8792 55.8123L35.1267 51.3363C33.3033 50.2836 32.18 48.3381 32.18 46.2326V37.2807C32.18 35.1753 33.3033 33.2298 35.1267 32.177L42.8792 27.7011Z" fill="#1C1B21"/>
<path d="M49.3389 35.232C49.3389 34.7868 48.8405 34.7868 48.619 34.8425C48.9291 34.5976 49.2928 34.657 49.422 34.7312L52.4168 36.1996C52.7022 36.3396 52.8832 36.6307 52.8832 36.9497V46.6101C52.8832 46.9334 52.6974 47.2276 52.4062 47.3653L49.5881 48.6978C49.3943 48.7812 48.9734 48.9871 48.619 48.6978C49.062 48.7812 49.302 48.4659 49.3389 48.2526V35.232Z" fill="url(#paint0_linear_987_6949)"/>
<path d="M48.6549 34.8343C48.89 34.7878 49.3389 34.8093 49.3389 35.2318V38.557L40.2592 45.4259C40.1005 45.5459 39.8771 45.526 39.7419 45.3797L38.8061 44.3671C38.6595 44.2085 38.6698 43.9602 38.829 43.8143L48.619 34.8423L48.6549 34.8343Z" fill="url(#paint1_linear_987_6949)"/>
<path d="M49.3389 44.983L40.2592 38.1141C40.1005 37.994 39.8771 38.014 39.7419 38.1602L38.8061 39.1728C38.6595 39.3315 38.6698 39.5798 38.829 39.7257L48.619 48.6977V48.6977C49.062 48.7812 49.302 48.4658 49.3389 48.2525V44.983Z" fill="url(#paint2_linear_987_6949)"/>
<path d="M73.339 27.7011C75.1624 26.6484 77.4089 26.6484 79.2322 27.7011L86.9848 32.177C88.8082 33.2298 89.9314 35.1753 89.9314 37.2807V46.2326C89.9314 48.3381 88.8082 50.2836 86.9848 51.3363L79.2322 55.8123C77.4089 56.865 75.1624 56.865 73.339 55.8123L65.5864 51.3363C63.7631 50.2836 62.6398 48.3381 62.6398 46.2326V37.2807C62.6398 35.1753 63.7631 33.2298 65.5864 32.177L73.339 27.7011Z" fill="#1C1B21"/>
<path d="M68.9669 40.9719C68.5335 41.4052 68.5335 42.1079 68.9669 42.5413L75.631 49.2054C76.0644 49.6387 76.767 49.6387 77.2004 49.2054L83.8645 42.5413C84.2979 42.1079 84.2979 41.4052 83.8645 40.9719L77.2004 34.3078C76.767 33.8744 76.0644 33.8744 75.631 34.3078L68.9669 40.9719Z" fill="#EE513B"/>
<path d="M74.2775 47.8303L73.6027 47.1555L75.3456 45.4125C75.2751 45.2613 75.2358 45.0926 75.2358 44.9147C75.2358 44.4096 75.5531 43.9786 75.9993 43.8103V39.5466C75.5531 39.3783 75.2358 38.9473 75.2358 38.4423C75.2358 37.7906 75.764 37.2623 76.4157 37.2623C77.0674 37.2623 77.5957 37.7906 77.5957 38.4423C77.5957 38.9002 77.3348 39.2971 76.9536 39.4927V43.8045L78.6198 42.1384C78.5527 41.9902 78.5153 41.8257 78.5153 41.6524C78.5153 41.0008 79.0436 40.4725 79.6953 40.4725C80.347 40.4725 80.8753 41.0008 80.8753 41.6524C80.8753 42.3041 80.347 42.8324 79.6953 42.8324C79.5687 42.8324 79.4467 42.8124 79.3323 42.7755L77.543 44.5649C77.5772 44.6754 77.5957 44.7929 77.5957 44.9147C77.5957 45.5663 77.0674 46.0946 76.4157 46.0946C76.2939 46.0946 76.1765 46.0762 76.0659 46.0419L74.2775 47.8303Z" fill="#1C1B21"/>
<path d="M57.8792 53.2812C59.7026 52.2285 61.9491 52.2285 63.7725 53.2812L71.525 57.7571C73.3484 58.8099 74.4716 60.7554 74.4716 62.8608V71.8127C74.4716 73.9181 73.3484 75.8637 71.525 76.9164L63.7725 81.3923C61.9491 82.4451 59.7026 82.4451 57.8792 81.3923L50.1267 76.9164C48.3033 75.8637 47.18 73.9181 47.18 71.8127V62.8608C47.18 60.7554 48.3033 58.8099 50.1267 57.7571L57.8792 53.2812Z" fill="#1C1B21"/>
<path d="M62.3431 67.3231C62.3431 66.5107 61.6638 65.8521 60.8259 65.8521C59.988 65.8521 59.3087 66.5107 59.3087 67.3231C59.3087 68.1356 59.988 68.7942 60.8259 68.7942C61.6638 68.7942 62.3431 68.1356 62.3431 67.3231Z" fill="#53C1DE"/>
<path fill-rule="evenodd" clip-rule="evenodd" d="M65.7534 64.592C66.0738 63.3297 66.4765 60.9887 65.0568 60.1951C63.6437 59.4049 61.8048 60.919 60.8338 61.8279C59.8656 60.9281 57.975 59.4204 56.5565 60.2166C55.1439 61.0094 55.5795 63.3115 55.907 64.5818C54.5893 64.9447 52.3305 65.7263 52.3305 67.3231C52.3305 68.9154 54.587 69.7658 55.8968 70.1283C55.5681 71.4056 55.1543 73.6748 56.5687 74.4659C57.9925 75.2619 59.8772 73.7901 60.8572 72.8713C61.8345 73.7855 63.6557 75.2669 65.0691 74.4737C66.487 73.6779 66.1177 71.3683 65.7901 70.0907C67.0599 69.7274 69.3212 68.8956 69.3212 67.3231C69.3212 65.7416 67.0503 64.9537 65.7534 64.592ZM65.5925 69.4136C65.3774 68.7535 65.0871 68.0517 64.7321 67.3266C65.071 66.6187 65.35 65.9259 65.559 65.2701C66.5097 65.5373 68.5954 66.1481 68.5954 67.3231C68.5954 68.5091 66.594 69.1257 65.5925 69.4136ZM64.7054 73.8646C63.6509 74.4564 62.0844 73.0398 61.3627 72.3665C61.8414 71.8588 62.3199 71.2685 62.7869 70.6131C63.6083 70.5425 64.3843 70.4269 65.0881 70.2692C65.3186 71.1729 65.7646 73.2701 64.7054 73.8646ZM56.9314 73.8561C55.8767 73.2665 56.3588 71.2416 56.6006 70.3007C57.2965 70.4499 58.0669 70.5573 58.8903 70.6221C59.3603 71.2634 59.8526 71.853 60.3488 72.3692C59.7358 72.9441 57.991 74.4485 56.9314 73.8561ZM53.0563 67.3231C53.0563 66.1327 55.1295 65.5263 56.1019 65.2597C56.3146 65.9302 56.5934 66.6313 56.93 67.3402C56.5891 68.0598 56.3062 68.772 56.0916 69.4504C55.1644 69.1931 53.0563 68.5143 53.0563 67.3231ZM56.9201 60.8257C57.9791 60.2313 59.6222 61.6788 60.3251 62.3302C59.8316 62.8442 59.3438 63.4292 58.8778 64.0669C58.0787 64.1387 57.3137 64.254 56.6105 64.4085C56.3467 63.384 55.8623 61.4193 56.9201 60.8257ZM63.3061 64.8318C63.8482 64.8982 64.3676 64.9864 64.8553 65.0944C64.7089 65.5494 64.5264 66.0252 64.3115 66.5129C63.9999 65.9397 63.6655 65.3781 63.3061 64.8318ZM60.834 62.8332C61.1687 63.1848 61.504 63.5775 61.8338 64.0035C61.1648 63.9728 60.4947 63.9727 59.8257 64.003C60.1558 63.581 60.494 63.1889 60.834 62.8332ZM57.3464 66.5124C57.1351 66.0263 56.9542 65.5484 56.8065 65.0869C57.2913 64.9817 57.8083 64.8958 58.3469 64.8305C57.9865 65.3756 57.6526 65.937 57.3464 66.5124ZM58.3624 69.866C57.806 69.8057 57.2812 69.7242 56.7965 69.6219C56.9466 69.1522 57.1314 68.664 57.3473 68.1675C57.6577 68.7489 57.9966 69.3157 58.3624 69.866ZM60.8541 71.8628C60.51 71.5029 60.1669 71.1048 59.8318 70.6766C60.5046 70.7022 61.1788 70.7023 61.8515 70.6732C61.5207 71.1092 61.1866 71.5078 60.8541 71.8628ZM64.3184 68.1422C64.5455 68.6441 64.737 69.1297 64.889 69.5914C64.3963 69.7004 63.8645 69.7882 63.3041 69.8533C63.6662 69.2968 64.0059 68.7264 64.3184 68.1422ZM62.3818 69.9386C61.3527 70.0099 60.317 70.0092 59.2875 69.9445C58.7025 69.1159 58.1818 68.2446 57.7323 67.34C58.1796 66.4373 58.6966 65.5677 59.2788 64.7405C60.3091 64.665 61.3457 64.6648 62.3759 64.7409C62.9531 65.5681 63.4693 66.4355 63.927 67.33C63.4748 68.2323 62.9551 69.1037 62.3818 69.9386ZM64.6943 60.8047C65.7535 61.3971 65.282 63.501 65.0506 64.4158C64.3457 64.2581 63.5802 64.1407 62.7788 64.0678C62.3119 63.4233 61.8282 62.8372 61.3426 62.3299C62.0546 61.6644 63.6452 60.2182 64.6943 60.8047Z" fill="#53C1DE"/>
<path d="M12.8792 27.7011C14.7026 26.6484 16.9491 26.6484 18.7725 27.7011L26.525 32.177C28.3484 33.2298 29.4716 35.1753 29.4716 37.2807V46.2326C29.4716 48.3381 28.3484 50.2836 26.525 51.3363L18.7725 55.8123C16.9491 56.865 14.7026 56.865 12.8792 55.8123L5.12666 51.3363C3.30329 50.2836 2.18004 48.3381 2.18004 46.2326V37.2807C2.18004 35.1753 3.30329 33.2298 5.12666 32.177L12.8792 27.7011Z" fill="#1C1B21"/>
<path d="M104.118 27.7011C105.941 26.6484 108.188 26.6484 110.011 27.7011L117.763 32.177C119.587 33.2298 120.71 35.1753 120.71 37.2807V46.2326C120.71 48.3381 119.587 50.2836 117.763 51.3363L110.011 55.8123C108.188 56.865 105.941 56.865 104.118 55.8123L96.3651 51.3363C94.5418 50.2836 93.4185 48.3381 93.4185 46.2326V37.2807C93.4185 35.1753 94.5418 33.2298 96.3651 32.177L104.118 27.7011Z" fill="#1C1B21"/>
<circle cx="107.064" cy="41.9115" r="7.09449" fill="#8892BF"/>
<path d="M106.273 38.871H107.125L106.884 40.1501H107.649C108.069 40.1591 108.381 40.2528 108.587 40.4314C108.797 40.6099 108.858 40.9493 108.772 41.4494L108.359 43.6795H107.495L107.89 41.5498C107.931 41.3265 107.918 41.1681 107.853 41.0743C107.787 40.9806 107.645 40.9337 107.427 40.9337L106.742 40.927L106.236 43.6795H105.385L106.273 38.871Z" fill="#1C1B21"/>
<path fill-rule="evenodd" clip-rule="evenodd" d="M102.372 40.1501H104.026C104.511 40.1546 104.863 40.3064 105.081 40.6055C105.299 40.9046 105.371 41.3132 105.297 41.8311C105.268 42.0678 105.204 42.2999 105.105 42.5276C105.011 42.7553 104.879 42.9607 104.71 43.1437C104.505 43.3759 104.285 43.5232 104.05 43.5858C103.816 43.6483 103.573 43.6795 103.322 43.6795H102.582L102.348 44.952H101.49L102.372 40.1501ZM102.724 42.9227L103.093 40.9203H103.217C103.263 40.9203 103.31 40.918 103.359 40.9136C103.688 40.9092 103.962 40.9427 104.18 41.0141C104.402 41.0855 104.476 41.3556 104.402 41.8244C104.312 42.3826 104.135 42.7084 103.871 42.8022C103.608 42.8915 103.279 42.9339 102.884 42.9294H102.798C102.773 42.9294 102.749 42.9272 102.724 42.9227Z" fill="#1C1B21"/>
<path fill-rule="evenodd" clip-rule="evenodd" d="M111.34 40.1501H109.686L108.804 44.952H109.661L109.896 43.6795H110.636C110.887 43.6795 111.13 43.6483 111.364 43.5858C111.599 43.5232 111.819 43.3759 112.024 43.1437C112.193 42.9607 112.325 42.7553 112.419 42.5276C112.518 42.2999 112.582 42.0678 112.61 41.8311C112.684 41.3132 112.612 40.9046 112.394 40.6055C112.176 40.3064 111.825 40.1546 111.34 40.1501ZM110.407 40.9203L110.038 42.9227C110.062 42.9272 110.087 42.9294 110.112 42.9294H110.198C110.593 42.9339 110.922 42.8915 111.185 42.8022C111.448 42.7084 111.625 42.3826 111.716 41.8244C111.79 41.3556 111.716 41.0855 111.494 41.0141C111.276 40.9427 111.002 40.9092 110.673 40.9136C110.624 40.918 110.577 40.9203 110.531 40.9203H110.407Z" fill="#1C1B21"/>
<path d="M27.8792 52.9168C29.7026 51.8641 31.9491 51.8641 33.7725 52.9168L41.525 57.3927C43.3484 58.4455 44.4716 60.391 44.4716 62.4964V71.4483C44.4716 73.5538 43.3484 75.4993 41.525 76.552L33.7725 81.028C31.9491 82.0807 29.7026 82.0807 27.8792 81.028L20.1267 76.552C18.3033 75.4993 17.18 73.5538 17.18 71.4483V62.4964C17.18 60.391 18.3033 58.4455 20.1267 57.3927L27.8792 52.9168Z" fill="#1C1B21"/>
<path d="M23.4622 62.0229L30.8258 74.6463L38.1895 62.0229H35.2966L30.8258 69.6496L26.3551 62.0229H23.4622Z" fill="#41B883"/>
<path d="M26.3551 62.0229L30.8259 69.6496L35.2966 62.0229H32.6668L30.8602 65.1854L28.9849 62.0229H26.3551Z" fill="#35495E"/>
<path d="M88.8792 53.2812C90.7026 52.2285 92.9491 52.2285 94.7725 53.2812L102.525 57.7571C104.348 58.8099 105.472 60.7554 105.472 62.8608V71.8127C105.472 73.9181 104.348 75.8637 102.525 76.9164L94.7725 81.3923C92.9491 82.4451 90.7026 82.4451 88.8792 81.3923L81.1267 76.9164C79.3033 75.8637 78.18 73.9181 78.18 71.8127V62.8608C78.18 60.7554 79.3033 58.8099 81.1267 57.7571L88.8792 53.2812Z" fill="#1C1B21"/>
<path d="M92.4376 60.557C92.0672 60.3487 91.5844 60.3496 91.2138 60.557C89.3573 61.5815 87.5008 62.6063 85.644 63.6304C85.2827 63.8204 85.039 64.2084 85.0429 64.6112V70.8014C85.0403 71.2119 85.2966 71.6037 85.6672 71.7912C86.2005 72.0749 86.7187 72.3875 87.2617 72.6523C87.8889 72.9605 88.6735 73.0286 89.3084 72.7072C89.8237 72.4408 90.0526 71.8484 90.052 71.3039C90.0561 69.261 90.0526 67.218 90.0536 65.1751C90.0658 65.0843 89.9977 64.9873 89.8987 64.9894C89.6614 64.9857 89.4238 64.9873 89.1866 64.9888C89.0969 64.9803 89.0095 65.0548 89.0162 65.1449C89.013 67.1747 89.0169 69.2051 89.0143 71.2351C89.0195 71.516 88.8298 71.7859 88.5591 71.8807C87.9341 72.0998 86.1501 70.9414 86.1501 70.9414C86.0846 70.9111 86.043 70.8401 86.0494 70.7696C86.0494 68.7273 86.0497 66.6849 86.0494 64.6429C86.0404 64.5606 86.0912 64.4864 86.1668 64.4528C88.0171 63.4344 89.8665 62.4133 91.7168 61.3942C91.7811 61.3513 91.8707 61.3515 91.9348 61.3945C93.7852 62.4133 95.6349 63.4334 97.4855 64.4519C97.5614 64.4855 97.61 64.5609 97.6022 64.6429C97.6019 66.6849 97.6029 68.7273 97.6016 70.7693C97.6071 70.8415 97.5698 70.9116 97.5023 70.9433C95.6692 71.9563 93.8153 72.9365 91.9988 73.9789C91.9195 74.0244 91.8298 74.0759 91.741 74.0258C91.2633 73.7616 90.7914 73.487 90.3153 73.2203C90.2635 73.188 90.1976 73.1741 90.1436 73.2102C89.9301 73.3227 89.7294 73.4138 89.4843 73.5109C89.14 73.6472 89.195 73.7029 89.5055 73.8838C90.0623 74.1989 90.62 74.5127 91.1767 74.8282C91.5433 75.0569 92.0358 75.0732 92.4141 74.8618C94.2709 73.8386 96.127 72.8141 97.9841 71.7909C98.3538 71.6024 98.6113 71.2122 98.6087 70.8013V64.6112C98.6123 64.2166 98.3779 63.8355 98.0275 63.6426C96.1646 62.6131 94.3008 61.5859 92.4376 60.557Z" fill="#8CC84B"/>
<path d="M95.2391 65.2046C94.5104 64.8148 93.6434 64.794 92.8336 64.8449C92.2486 64.9027 91.6333 65.0642 91.207 65.4836C90.7698 65.9052 90.6747 66.586 90.8823 67.1363C91.0311 67.5252 91.4057 67.7782 91.793 67.9119C92.292 68.0881 92.8161 68.1425 93.3403 68.197C93.8185 68.2467 94.2968 68.2964 94.7563 68.4385C94.9441 68.5007 95.1627 68.5959 95.2202 68.8001C95.2733 69.042 95.2151 69.3232 95.0187 69.4912C94.3948 69.985 92.6596 69.9094 92.0432 69.5208C91.794 69.3552 91.6866 69.0621 91.6429 68.7828C91.6381 68.6958 91.568 68.616 91.4735 68.6226C91.2369 68.6198 91.0003 68.6204 90.7637 68.6223C90.6811 68.6153 90.5953 68.6741 90.5908 68.7583C90.5422 70.0375 91.717 70.5952 92.8192 70.718C93.449 70.778 94.0925 70.7746 94.7126 70.6394C95.1788 70.5333 95.6461 70.3379 95.967 69.9788C96.3627 69.5424 96.4405 68.8928 96.2631 68.3493C96.1274 67.9437 95.7397 67.6836 95.3433 67.5497C94.8044 67.3649 94.1656 67.2656 93.6775 67.2191C92.9679 67.1515 92.1247 67.1791 91.9239 66.7129C91.8438 66.4687 91.912 66.1656 92.1364 66.0154C92.73 65.6128 93.9381 65.6662 94.5528 65.967C94.8351 66.1084 94.9987 66.3987 95.0662 66.6918C95.0787 66.7779 95.1366 66.8677 95.2363 66.864C95.4713 66.8686 95.7063 66.8652 95.9413 66.8655C96.022 66.8712 96.1104 66.8256 96.1261 66.743C96.1162 66.1304 95.8034 65.5034 95.2391 65.2046Z" fill="#8CC84B"/>
<path d="M57.8792 2.06561C59.7026 1.01289 61.9491 1.01289 63.7725 2.06561L71.525 6.54155C73.3484 7.59428 74.4716 9.53979 74.4716 11.6452V20.5971C74.4716 22.7026 73.3484 24.6481 71.525 25.7008L63.7725 30.1768C61.9491 31.2295 59.7026 31.2295 57.8792 30.1768L50.1267 25.7008C48.3033 24.6481 47.18 22.7026 47.18 20.5971V11.6452C47.18 9.53979 48.3033 7.59428 50.1267 6.54155L57.8792 2.06561Z" fill="#1C1B21"/>
<rect x="54.724" y="10.0193" width="12.2036" height="12.2036" fill="#FFCA28"/>
<path d="M62.1334 20.169L63.0319 19.5745C63.1023 19.7957 63.5482 20.3211 64.1114 20.3211C64.6747 20.3211 64.9362 20.0135 64.9362 19.8095C64.9362 19.2537 64.361 19.0578 64.0848 18.9637C64.0398 18.9483 64.0027 18.9357 63.9773 18.9246C63.9643 18.919 63.9447 18.9115 63.9194 18.9018C63.6122 18.7844 62.4787 18.3514 62.4787 17.0961C62.4787 15.7134 63.813 15.5544 64.1148 15.5544C64.3122 15.5544 65.2614 15.5786 65.7341 16.467L64.8624 17.0754C64.6713 16.6882 64.3538 16.5603 64.1584 16.5603C63.6756 16.5603 63.575 16.9143 63.575 17.0754C63.575 17.5274 64.0995 17.73 64.5424 17.9011C64.6583 17.9459 64.7686 17.9885 64.8624 18.0328C65.3452 18.261 66.056 18.6343 66.056 19.8095C66.056 20.3982 65.5622 21.3512 64.3193 21.3512C62.6497 21.3512 62.2071 20.3488 62.1334 20.169Z" fill="#3E3E3E"/>
<path d="M57.7749 20.2871L58.7114 19.6928C58.7848 19.914 59.0699 20.3216 59.4837 20.3216C59.8974 20.3216 60.1091 19.8967 60.1091 19.6928V15.6852H61.2609V19.6928C61.2795 20.2456 60.973 21.3512 59.6199 21.3512C58.3759 21.3512 57.8588 20.6118 57.7749 20.2871Z" fill="#3E3E3E"/>
<path d="M27.8792 1.70123C29.7026 0.648506 31.9491 0.648506 33.7725 1.70123L41.525 6.17717C43.3484 7.2299 44.4716 9.17542 44.4716 11.2809V20.2327C44.4716 22.3382 43.3484 24.2837 41.525 25.3364L33.7725 29.8124C31.9491 30.8651 29.7026 30.8651 27.8792 29.8124L20.1267 25.3364C18.3033 24.2837 17.18 22.3382 17.18 20.2327V11.2809C17.18 9.17541 18.3033 7.2299 20.1267 6.17717L27.8792 1.70123Z" fill="#1C1B21"/>
<path fill-rule="evenodd" clip-rule="evenodd" d="M31.1269 15.9946C31.1269 14.8275 32.073 13.8813 33.2401 13.8813C34.4072 13.8813 35.3533 14.8275 35.3533 15.9946C35.3533 17.1616 34.4072 18.1078 33.2401 18.1078C32.073 18.1078 31.1269 17.1616 31.1269 15.9946Z" fill="#1ABCFE"/>
<path fill-rule="evenodd" clip-rule="evenodd" d="M26.9005 20.221C26.9005 19.0539 27.8466 18.1078 29.0137 18.1078H31.1269V20.221C31.1269 21.3881 30.1808 22.3342 29.0137 22.3342C27.8466 22.3342 26.9005 21.3881 26.9005 20.221Z" fill="#0ACF83"/>
<path fill-rule="evenodd" clip-rule="evenodd" d="M31.1269 9.65491V13.8813H33.2401C34.4072 13.8813 35.3533 12.9352 35.3533 11.7681C35.3533 10.601 34.4072 9.65491 33.2401 9.65491H31.1269Z" fill="#FF7262"/>
<path fill-rule="evenodd" clip-rule="evenodd" d="M26.9005 11.7681C26.9005 12.9352 27.8466 13.8813 29.0137 13.8813H31.1269V9.65491H29.0137C27.8466 9.65491 26.9005 10.601 26.9005 11.7681Z" fill="#F24E1E"/>
<path fill-rule="evenodd" clip-rule="evenodd" d="M26.9005 15.9946C26.9005 17.1616 27.8466 18.1078 29.0137 18.1078H31.1269V13.8813H29.0137C27.8466 13.8813 26.9005 14.8275 26.9005 15.9946Z" fill="#A259FF"/>
<path d="M88.8792 2.06561C90.7026 1.01289 92.9491 1.01289 94.7725 2.06561L102.525 6.54155C104.348 7.59428 105.472 9.53979 105.472 11.6452V20.5971C105.472 22.7026 104.348 24.6481 102.525 25.7008L94.7725 30.1768C92.9491 31.2295 90.7026 31.2295 88.8792 30.1768L81.1267 25.7008C79.3033 24.6481 78.18 22.7026 78.18 20.5971V11.6452C78.18 9.53979 79.3033 7.59428 81.1267 6.54155L88.8792 2.06561Z" fill="#1C1B21"/>
<path fill-rule="evenodd" clip-rule="evenodd" d="M87.2525 22.4087L85.7664 20.5575C85.4089 20.1121 85.2149 19.5644 85.2149 19.0007V12.2973C85.2149 11.4529 85.8904 10.7522 86.7619 10.6927L93.6539 10.2222C94.1546 10.188 94.6523 10.3211 95.0636 10.5992L97.4851 12.2363C97.9185 12.5294 98.1767 13.0085 98.1767 13.5197V21.1408C98.1767 21.9672 97.5124 22.6513 96.6591 22.7039L89.0098 23.1747C88.3289 23.2166 87.6707 22.9298 87.2525 22.4087Z" fill="#1C1B21"/>
<path d="M89.6427 15.6519V15.5641C89.6427 15.3417 89.8209 15.1572 90.0505 15.1418L91.7232 15.0301L94.0363 18.4364V15.4468L93.4409 15.3675V15.3258C93.4409 15.1007 93.6232 14.915 93.8557 14.9031L95.3777 14.8251V15.0441C95.3777 15.1469 95.3012 15.2349 95.1964 15.2526L94.8302 15.3146V20.1561L94.3705 20.3142C93.9865 20.4462 93.559 20.3049 93.3392 19.9732L91.0936 16.5845V19.8188L91.7848 19.9511L91.7751 20.0152C91.745 20.216 91.5716 20.3679 91.3618 20.3772L89.6427 20.4537C89.62 20.2378 89.7818 20.0446 90.0051 20.0211L90.2313 19.9974V15.685L89.6427 15.6519Z" fill="white"/>
<path fill-rule="evenodd" clip-rule="evenodd" d="M93.7157 11.0669L86.8237 11.5374C86.4109 11.5656 86.0909 11.8975 86.0909 12.2975V19.0009C86.0909 19.3767 86.2202 19.7418 86.4586 20.0387L87.9446 21.89C88.1849 22.1893 88.563 22.3541 88.9541 22.33L96.6035 21.8592C96.9955 21.835 97.3007 21.5207 97.3007 21.141V13.5199C97.3007 13.285 97.1821 13.0649 96.9829 12.9302L94.5615 11.2931C94.3147 11.1262 94.0161 11.0464 93.7157 11.0669ZM87.1654 12.402C87.0696 12.3311 87.1152 12.1832 87.2356 12.1746L93.762 11.7065C93.97 11.6916 94.1766 11.7488 94.3448 11.868L95.6542 12.7957C95.704 12.8309 95.6806 12.907 95.6191 12.9103L88.7076 13.2862C88.4985 13.2976 88.292 13.2361 88.1257 13.113L87.1654 12.402ZM88.3835 14.4646C88.3835 14.24 88.5649 14.0546 88.7968 14.0419L96.1042 13.644C96.3302 13.6317 96.5205 13.8055 96.5205 14.0244V20.6234C96.5205 20.8475 96.3398 21.0328 96.1083 21.046L88.8472 21.4591C88.5956 21.4735 88.3835 21.2801 88.3835 21.0366V14.4646Z" fill="white"/>
<path fill-rule="evenodd" clip-rule="evenodd" d="M23.9643 38.1134C23.9695 38.1317 23.9721 38.1506 23.9722 38.1696V41.1236C23.9722 41.1615 23.9617 41.1988 23.942 41.2316C23.9222 41.2644 23.8938 41.2916 23.8596 41.3105L21.2811 42.7379V45.5673C21.2811 45.6443 21.2385 45.7154 21.1691 45.7541L15.7866 48.7334C15.7743 48.7402 15.7609 48.7445 15.7474 48.749C15.7424 48.7507 15.7376 48.7536 15.7323 48.755C15.6947 48.7645 15.6551 48.7645 15.6175 48.755C15.6114 48.7534 15.6058 48.7501 15.5999 48.748C15.5876 48.7437 15.5747 48.7399 15.5629 48.7334L10.1816 45.7541C10.1474 45.7352 10.119 45.708 10.0992 45.6752C10.0795 45.6424 10.0691 45.6052 10.069 45.5673V36.7053C10.069 36.6859 10.0718 36.667 10.0769 36.6487C10.0786 36.6425 10.0825 36.6369 10.0847 36.6307C10.0889 36.6194 10.0928 36.6078 10.099 36.5973C10.1032 36.5903 10.1094 36.5847 10.1144 36.5782C10.1208 36.5696 10.1267 36.5607 10.1343 36.5532C10.1407 36.547 10.1491 36.5424 10.1564 36.537C10.1645 36.5305 10.1718 36.5235 10.181 36.5184L12.8721 35.0288C12.9062 35.0099 12.9448 35 12.9841 35C13.0234 35 13.062 35.0099 13.0961 35.0288L15.7869 36.5184C15.7959 36.5238 15.804 36.5305 15.8121 36.5367C15.8194 36.5421 15.8275 36.547 15.834 36.5529C15.8418 36.5607 15.8474 36.5696 15.8541 36.5782C15.8589 36.5847 15.8653 36.5903 15.8692 36.5973C15.8757 36.6081 15.8793 36.6194 15.8838 36.6307C15.886 36.6369 15.89 36.6425 15.8916 36.649C15.8968 36.6674 15.8994 36.6863 15.8995 36.7053V42.2404L18.1417 40.999V38.1694C18.1417 38.1505 18.1445 38.1314 18.1496 38.1134C18.1515 38.1069 18.1552 38.1012 18.1574 38.095C18.1619 38.0837 18.1658 38.0722 18.172 38.0617C18.1762 38.0547 18.1823 38.049 18.1871 38.0425C18.1938 38.0339 18.1994 38.025 18.2072 38.0175C18.2137 38.0113 18.2218 38.0067 18.2291 38.0013C18.2375 37.9949 18.2448 37.9879 18.2537 37.9828L20.9451 36.4931C20.9791 36.4742 21.0178 36.4643 21.0571 36.4643C21.0964 36.4643 21.135 36.4742 21.1691 36.4931L23.8599 37.9828C23.8694 37.9882 23.8767 37.9949 23.8851 38.0011C23.8921 38.0065 23.9002 38.0113 23.9066 38.0172C23.9145 38.025 23.9201 38.0339 23.9268 38.0425C23.9318 38.049 23.938 38.0547 23.9419 38.0617C23.9484 38.0722 23.952 38.0837 23.9565 38.095C23.959 38.1012 23.9626 38.1069 23.9643 38.1134ZM23.5236 40.999V38.5425L22.582 39.0637L21.2811 39.7839V42.2404L23.5236 40.999ZM20.8328 45.4426V42.9845L19.5532 43.6872L15.8992 45.6925V48.1737L20.8328 45.4426ZM10.5176 37.0782V45.4426L15.4506 48.1734V45.6927L12.8735 44.2903L12.8716 44.2892C12.8629 44.2844 12.8556 44.2774 12.8475 44.2715C12.8405 44.2661 12.8324 44.2618 12.8262 44.2559C12.8189 44.2491 12.8133 44.24 12.8072 44.2324C12.8016 44.2252 12.7948 44.219 12.7904 44.2114C12.7853 44.2034 12.782 44.1929 12.7783 44.1837C12.7747 44.1756 12.7699 44.1681 12.7677 44.1595C12.7649 44.1492 12.7643 44.1382 12.7632 44.1277C12.7621 44.1196 12.7598 44.1115 12.7598 44.1035V38.3196L11.4592 37.5991L10.5176 37.0782ZM12.9844 35.4644L10.7424 36.7053L12.9838 37.9462L15.2255 36.705L12.9844 35.4644ZM14.1503 43.2085L15.4509 42.4886V37.0782L14.5093 37.5994L13.2084 38.3196V43.73L14.1503 43.2085ZM21.0571 36.9287L18.8154 38.1696L21.0571 39.4105L23.2985 38.1694L21.0571 36.9287ZM20.8328 39.7839L19.5319 39.0637L18.5903 38.5425V40.999L19.8909 41.7189L20.8328 42.2404V39.7839ZM15.6746 45.3196L18.9627 43.5147L20.6063 42.6127L18.3663 41.3727L15.7872 42.8004L13.4366 44.1016L15.6746 45.3196Z" fill="#FF2D20"/>
<defs>
<linearGradient id="paint0_linear_987_6949" x1="50.7511" y1="34.6664" x2="50.7511" y2="48.847" gradientUnits="userSpaceOnUse">
<stop stop-color="#32B5F1"/>
<stop offset="1" stop-color="#2B9FED"/>
</linearGradient>
<linearGradient id="paint1_linear_987_6949" x1="49.3389" y1="36.456" x2="39.22" y2="44.9497" gradientUnits="userSpaceOnUse">
<stop stop-color="#0F6FB3"/>
<stop offset="0.270551" stop-color="#1279B7"/>
<stop offset="0.421376" stop-color="#1176B5"/>
<stop offset="0.618197" stop-color="#0E69AC"/>
<stop offset="0.855344" stop-color="#0F70AF"/>
<stop offset="1" stop-color="#0F6DAD"/>
</linearGradient>
<linearGradient id="paint2_linear_987_6949" x1="39.2876" y1="38.7096" x2="49.3781" y2="47.0645" gradientUnits="userSpaceOnUse">
<stop stop-color="#1791D2"/>
<stop offset="1" stop-color="#1173C5"/>
</linearGradient>
</defs>
</svg>
