<svg width="56" height="47" viewBox="0 0 56 47" fill="none" xmlns="http://www.w3.org/2000/svg">
<path d="M32.1753 14.8507L10.3033 14.8507C5.62482 14.8 1.65576 18.7353 1.72332 23.4306C1.72332 25.1365 2.17934 26.6903 3.09138 28.0753C3.98653 29.4434 5.18569 30.4905 6.67198 31.183L1.72332 37.5504L11.1477 37.5504L15.4208 32.0106L23.3252 32.0106L23.3252 37.5504L32.1753 37.5504L32.1753 14.8507ZM12.5327 21.4883L23.3252 21.4883L23.3252 25.3561L12.5327 25.3561C11.9922 25.3561 11.5362 25.1703 11.1646 24.7987C10.7762 24.4102 10.5904 23.9542 10.5904 23.4306C10.5904 22.3497 11.4517 21.4883 12.5327 21.4883Z" fill="#83FA26"/>
<path d="M23.3869 31.8258L45.2589 31.8258C49.9374 31.8765 53.9064 27.9412 53.8389 23.2459C53.8389 21.54 53.3829 19.9862 52.4708 18.6012C51.5757 17.2332 50.3765 16.186 48.8902 15.4936L53.8389 9.12616L44.4145 9.12616L40.1414 14.666L32.237 14.666L32.237 9.12616L23.3869 9.12616L23.3869 31.8258ZM43.0295 25.1882L32.237 25.1882L32.237 21.3205L43.0295 21.3205C43.57 21.3205 44.026 21.5063 44.3976 21.8778C44.786 22.2663 44.9718 22.7223 44.9718 23.2459C44.9718 24.3268 44.1104 25.1882 43.0295 25.1882Z" fill="#83FA26"/>
</svg>
