<svg width="450" height="177" viewBox="0 0 450 177" fill="none" xmlns="http://www.w3.org/2000/svg">
<path d="M52.7439 84.3627C52.176 83.8894 51.5606 83.3687 50.898 82.8008C50.33 82.1381 49.6674 81.5228 48.9101 80.9548C48.2474 80.3868 47.5374 79.8188 46.7801 79.2509C46.1175 78.5882 45.4548 77.9729 44.7922 77.4049C44.1295 76.8369 43.4669 76.2689 42.8042 75.701C42.2363 75.133 41.6683 74.6597 41.1003 74.281C40.627 73.8077 40.201 73.429 39.8223 73.145C39.4437 72.8611 39.1123 72.6244 38.8284 72.4351L38.4024 72.1511C38.4024 72.4351 39.0177 74.5177 40.2483 78.3989C41.9523 83.9841 43.2302 87.2026 44.0822 88.0546C45.1235 88.8119 47.5374 89.3799 51.324 89.7585C53.5959 90.0425 55.0632 90.1845 55.7258 90.1845C56.8618 90.1845 57.4771 89.9952 57.5718 89.6165C57.4771 89.0486 55.8678 87.2973 52.7439 84.3627ZM48.0581 136.333L49.904 134.061C50.9453 132.831 52.1286 130.89 53.4539 128.239L55.4419 124.689L57.0038 129.233L55.1579 132.783C53.9272 135.245 52.6966 137.185 51.466 138.605L49.762 140.735L48.0581 136.333ZM23.2088 62.9213C23.2088 62.5427 23.3035 62.022 23.4928 61.3594C23.6821 60.6967 23.7768 60.2708 23.7768 60.0814C23.6821 59.3241 23.1142 58.0462 22.0729 56.2475C21.6942 55.7742 21.3629 55.3009 21.0789 54.8276C20.7002 54.2596 20.3689 53.739 20.0849 53.2656C19.7063 52.6977 19.4223 52.2243 19.2329 51.8457C18.9489 51.3724 18.665 50.899 18.381 50.4257C18.097 49.9524 17.8603 49.5737 17.671 49.2898C17.4817 48.9111 17.245 48.5324 16.961 48.1538C16.677 47.6805 16.4877 47.3491 16.393 47.1598C16.2984 46.9705 16.109 46.6865 15.825 46.3078L15.5411 45.7399L13.8371 42.474L15.5411 39.4921C16.5824 37.7881 17.7183 36.0368 18.9489 34.2382C19.1383 34.0489 19.3276 33.8596 19.5169 33.6702C19.6116 33.3862 19.7536 33.1969 19.9429 33.1022C20.0376 32.9129 20.1796 32.7709 20.3689 32.6763C20.4636 32.4869 20.6056 32.3449 20.7949 32.2503C20.8896 32.0609 20.9842 31.9663 21.0789 31.9663C21.1735 31.8716 21.2682 31.8243 21.3629 31.8243L21.5049 31.6823C22.1675 31.8716 23.9188 34.3329 26.7587 39.0661C30.0719 44.6512 34.0005 49.4791 38.5444 53.5496C40.5323 55.2536 42.9462 57.2415 45.7861 59.5135C51.0873 63.7733 56.1045 68.2225 60.8377 72.8611C66.2335 78.1622 69.1208 81.6648 69.4994 83.3687C69.5941 83.6527 69.6414 83.9367 69.6414 84.2207C69.6414 86.8713 67.8901 90.5159 64.3876 95.1544C63.2516 96.385 61.453 97.1897 58.9917 97.5683C74.2326 110.537 83.983 119.01 88.2429 122.986L92.9287 127.245L94.2067 125.399C94.4907 125.115 94.9167 124.595 95.4847 123.838C96.242 122.796 96.7626 122.086 97.0466 121.708L98.4666 120.004L101.732 126.677C103.247 129.612 105.992 134.203 109.968 140.451L114.654 147.835L112.808 151.243C111.578 153.42 110.252 155.361 108.832 157.065L106.986 159.336L92.3607 145.847C64.3403 119.909 48.8627 105.52 45.9281 102.68C46.4961 104.005 47.4428 106.088 48.7681 108.928C50.5667 112.809 51.608 115.128 51.892 115.886L53.7379 121.282L52.3179 124.264C50.1407 128.618 48.3421 130.843 46.9221 130.937C45.5022 130.937 43.7982 127.766 41.8103 121.424C41.6209 120.856 41.1476 119.388 40.3903 117.022C39.1597 113.141 37.3137 107.224 34.8525 99.2723C30.9713 86.2087 27.8 76.4109 25.3388 69.8791C23.9188 65.9033 23.2088 63.584 23.2088 62.9213ZM100.909 116.738C100.246 119.578 98.495 122.749 95.6551 126.251C95.2764 126.63 94.9924 126.961 94.8031 127.245L92.9571 129.375L89.2652 127.529C84.1534 125.068 79.2782 123.838 74.6397 123.838C71.0425 123.838 67.8712 124.453 65.126 125.683C63.138 126.535 62.1441 126.725 62.1441 126.251C62.1441 125.399 63.9427 122.418 67.5399 117.306C68.2025 116.454 68.6759 115.838 68.9599 115.46C71.3264 112.999 76.0596 111.768 83.1594 111.768H88.6973C87.8453 108.076 86.52 102.633 84.7214 95.4384C83.3961 90.2319 82.4494 86.4926 81.8815 84.2207C80.1775 77.4996 79.2309 74.139 79.0415 74.139C78.6629 74.2337 77.8583 75.6063 76.6276 78.2569C72.2731 86.2087 69.2438 90.7052 67.5399 91.7465L67.3979 91.6045C67.4926 90.3739 68.4392 87.6286 70.2378 83.3687C73.7404 75.7956 75.4917 68.6012 75.4917 61.7854C75.4917 59.4188 76.0596 57.2889 77.1956 55.3956C77.2903 55.2062 77.3849 55.0643 77.4796 54.9696C80.6982 50.3311 82.7808 47.9171 83.7274 47.7278C84.4847 47.9171 85.668 52.177 87.2773 60.5074C89.1706 69.4058 91.0165 77.2156 92.8151 83.9367C93.5724 86.682 94.8504 91.8411 96.649 99.4143C98.5423 107.082 99.9623 112.857 100.909 116.738ZM116.557 126.961L112.297 110.49C111.35 107.555 110.782 106.088 110.593 106.088C110.498 106.088 109.741 107.082 108.321 109.07C105.103 113.803 103.067 116.217 102.215 116.312C102.121 116.217 102.026 116.122 101.931 116.028C102.026 114.892 104.203 110.679 108.463 103.39C109.22 102.254 109.599 101.355 109.599 100.692C109.599 99.3669 108.368 93.6398 105.907 83.5107V83.3687V83.2267C103.351 71.4884 102.026 63.158 101.931 58.2355C101.931 54.7329 102.547 51.7983 103.777 49.4318C103.872 49.0531 104.014 48.7218 104.203 48.4378C107.706 42.0953 110.83 38.8767 113.575 38.7821C116.604 38.9714 120.533 42.2846 125.361 48.7218L130.046 54.9696L130.472 50.5677C130.756 46.7812 131.987 43.4679 134.164 40.628C134.448 40.1547 134.78 39.6814 135.158 39.2081C135.442 38.7347 135.726 38.3088 136.01 37.9301C136.389 37.4568 136.72 37.0781 137.004 36.7941C137.288 36.4155 137.525 36.1315 137.714 35.9422C137.904 35.6582 138.046 35.4688 138.14 35.3742L138.424 35.2322C138.803 35.4215 139.181 40.486 139.56 50.4257C139.939 60.5548 140.412 66.8972 140.98 69.4532C140.98 71.9144 139.134 75.559 135.442 80.3868C134.306 81.9014 133.596 82.4221 133.312 81.9488C133.218 81.6648 133.123 81.3808 133.028 81.0968L132.602 79.2509L131.04 81.2388C130.188 82.2801 129.478 82.8481 128.91 82.9427C128.532 82.7534 128.342 82.3274 128.342 81.6648C128.342 78.1622 125.597 72.3404 120.107 64.1993C118.024 61.0754 115.989 58.4248 114.001 56.2475L110.593 52.5557L111.019 56.6735C111.587 61.1227 113.906 71.6304 117.977 88.1966C118.639 90.7525 119.018 92.1251 119.113 92.3145H119.397C119.775 92.3145 120.911 92.2198 122.805 92.0305C125.834 91.7465 127.869 91.6045 128.91 91.6045C134.496 91.6045 139.797 93.3084 144.814 96.7163C145.098 97.0003 145.382 97.237 145.666 97.4263L148.08 99.2723L146.234 102.822C145.098 105.094 143.773 107.082 142.258 108.786L140.27 111.342L137.856 109.354C134.543 106.798 130.425 105.047 125.503 104.1C125.219 104.005 124.982 103.958 124.793 103.958L121.811 103.39L125.077 116.17C126.97 123.932 129.052 130.322 131.324 135.339C131.892 136.38 132.224 137.28 132.318 138.037C132.318 138.605 132.176 139.22 131.892 139.883C130.567 143.102 128.484 146.273 125.645 149.397C125.266 149.681 124.982 149.917 124.793 150.107C124.13 150.296 123.799 149.87 123.799 148.829C123.704 147.693 123.515 147.172 123.231 147.267C122.947 147.456 122.568 147.077 122.095 146.131C122 145.942 121.953 145.8 121.953 145.705C120.911 142.77 116.699 141.114 109.315 140.735C107.422 140.64 105.292 140.593 102.925 140.593C100.18 140.593 97.7187 141.114 95.5415 142.155C89.2936 145.184 84.5605 148.592 81.3419 152.379C80.9632 152.852 80.5846 153.278 80.2059 153.657C78.8806 155.266 77.9813 156.118 77.508 156.213C77.4133 156.023 77.366 155.929 77.366 155.929C77.4607 154.982 78.0286 153.562 79.0699 151.669C84.1818 141.824 91.4236 134.866 100.795 130.795C104.487 129.186 108.179 128.239 111.871 127.955C114.806 127.766 116.367 127.435 116.557 126.961ZM152.368 123.838C151.327 123.838 148.534 124.453 143.99 125.683C142.476 126.157 141.245 126.393 140.299 126.393C140.015 126.299 139.873 126.251 139.873 126.251C139.873 125.399 141.671 122.418 145.268 117.306C145.931 116.454 146.404 115.838 146.688 115.46C149.055 112.999 153.835 111.768 161.03 111.768H166.568L166.142 109.638C164.911 104.242 163.444 100.834 161.74 99.4143C161.361 99.1303 160.935 98.8463 160.462 98.5623C159.61 97.8996 159.137 97.3317 159.042 96.8583C159.042 96.4797 159.373 95.6277 160.036 94.3024C160.604 92.9771 160.888 92.1251 160.888 91.7465C160.888 89.5692 159.847 84.5994 157.764 76.8369C157.291 75.133 156.959 74.2337 156.77 74.139C156.486 74.2337 155.729 75.6063 154.498 78.2569C150.428 85.83 147.446 90.2792 145.552 91.6045C145.458 91.6992 145.363 91.7465 145.268 91.7465L145.126 91.6045C145.221 90.5632 146.215 87.8179 148.108 83.3687C151.611 75.7956 153.362 68.6012 153.362 61.7854C153.362 58.4721 155.255 54.5436 159.042 49.9997C160.273 48.5798 161.125 47.8225 161.598 47.7278C162.261 47.7278 164.769 57.9515 169.124 78.3989C169.218 79.1562 169.313 79.6295 169.408 79.8188L171.112 85.9247L179.631 86.2087C180.578 86.2087 181.761 86.256 183.181 86.3506C184.223 86.4453 184.933 86.4926 185.311 86.4926C186.92 86.4926 187.772 86.2087 187.867 85.6407C187.772 84.978 186.778 82.5168 184.885 78.2569C181.004 69.5478 177.88 60.2234 175.513 50.2837C175.419 50.0944 175.371 49.9524 175.371 49.8577C175.087 48.0591 174.945 47.1125 174.945 47.0178C174.945 44.9352 176.507 41.8586 179.631 37.7881C180.957 36.0842 181.903 35.2322 182.471 35.2322C182.85 35.4215 183.229 36.5575 183.607 38.6401C185.122 46.4972 189.05 57.6675 195.393 72.1511C195.772 73.0977 196.15 73.997 196.529 74.849C199.747 81.8541 201.404 86.398 201.499 88.4806C201.499 90.3739 200.268 93.1191 197.807 96.7163C195.724 99.6509 193.831 101.166 192.127 101.26C191.559 101.26 190.802 101.166 189.855 100.976C188.908 100.787 188.056 100.598 187.299 100.408L186.163 100.124C186.163 100.976 195.819 110.869 215.13 129.801C219.295 133.777 222.798 137.138 225.638 139.883L230.324 144.285L231.744 142.439C232.028 142.155 232.454 141.634 233.022 140.877C233.779 139.836 234.3 139.126 234.584 138.747L236.004 137.043L239.412 143.717C241.21 147.314 243.908 151.905 247.505 157.491L252.333 164.732L250.487 168.282C249.257 170.459 247.931 172.4 246.511 174.104L244.665 176.234L229.898 162.886C224.123 157.585 211.344 145.421 191.559 126.393C184.27 119.388 180.247 115.791 179.489 115.602C179.395 115.602 178.685 116.785 177.359 119.152C174.898 123.79 173.336 126.488 172.674 127.245L170.686 129.375L167.136 127.529C162.024 125.068 157.101 123.838 152.368 123.838ZM237.168 98.9883C238.399 98.9883 240.103 92.7878 242.28 80.3868C243.037 75.843 243.416 72.7664 243.416 71.1571V69.7371C242.091 66.5186 240.671 63.016 239.156 59.2295C238.304 56.7682 237.878 55.2536 237.878 54.6856C237.973 53.2656 239.156 50.9937 241.428 47.8698C243.51 44.9352 244.93 43.4206 245.688 43.3259C245.877 43.4206 246.019 43.6573 246.114 44.0359C246.114 44.2252 248.291 49.6211 252.646 60.2234C253.119 61.2647 253.498 62.2114 253.782 63.0633C260.313 79.6295 267.886 96.9057 276.501 114.892C276.69 115.27 276.879 115.649 277.069 116.028L283.601 129.659L282.323 132.215C280.903 135.529 278.915 138.416 276.359 140.877C275.791 141.445 275.412 141.729 275.223 141.729C274.844 141.634 273.519 140.877 271.247 139.457C262.633 133.588 252.078 129.423 239.582 126.961C234.943 126.109 230.731 125.683 226.944 125.683C217.194 125.778 208.911 128.618 202.095 134.203C200.675 135.339 199.776 135.907 199.397 135.907C199.397 135.718 199.35 135.623 199.255 135.623C199.35 134.677 200.012 133.162 201.243 131.079C205.787 123.412 212.461 118.205 221.264 115.46C222.4 115.081 223.489 114.797 224.53 114.608C227.37 114.04 230.494 113.756 233.902 113.756C242.327 113.756 251.32 115.318 260.881 118.442C261.26 118.536 261.733 118.726 262.301 119.01C262.869 119.199 263.39 119.388 263.863 119.578L264.715 119.72C264.715 119.625 259.272 106.893 248.386 81.5228L247.818 85.0727C247.439 85.1673 246.918 86.4926 246.256 89.0486C244.078 96.7163 241.002 103.059 237.026 108.076C236.647 108.549 236.316 108.928 236.032 109.212C234.517 110.727 233.192 111.531 232.056 111.626C230.731 111.531 229.264 110.679 227.654 109.07C222.637 104.053 215.49 94.0184 206.213 78.9669C204.414 75.9376 202.758 73.145 201.243 70.5891L196.557 62.9213C195.989 61.9747 195.705 61.3121 195.705 60.9334L196.131 59.3715C197.362 56.8155 198.829 54.4489 200.533 52.2717C201.764 50.6624 202.616 49.8577 203.089 49.8577C203.752 49.8577 205.834 52.887 209.337 58.9455C209.432 59.0401 209.479 59.1348 209.479 59.2295C217.715 73.5237 225.572 85.404 233.05 94.8704C235.227 97.521 236.6 98.8936 237.168 98.9883ZM332.93 97.1423C332.835 96.4797 332.125 94.6811 330.8 91.7465L328.386 86.4926L327.392 89.4746C326.824 91.1785 326.54 92.4091 326.54 93.1664C326.54 94.3024 327.581 95.2964 329.664 96.1484C329.853 96.243 330.043 96.3377 330.232 96.4323C330.989 96.7163 331.605 96.953 332.078 97.1423C332.646 97.237 332.93 97.237 332.93 97.1423ZM320.434 91.6045C321.192 91.6045 322.28 87.7233 323.7 79.9608C323.984 78.2569 324.126 77.1209 324.126 76.5529C324.126 74.3757 323.085 71.2518 321.002 67.1812C320.908 66.9919 320.813 66.8499 320.718 66.7552C320.34 66.0926 320.15 65.5246 320.15 65.0513C320.15 64.3886 320.434 63.5367 321.002 62.4954C322.138 60.5074 323.606 58.3302 325.404 55.9636C326.445 54.8276 327.297 54.2596 327.96 54.2596C328.717 54.4489 329.333 55.1589 329.806 56.3895C330.09 57.3362 330.516 57.6675 331.084 57.3835C331.368 57.1942 331.605 57.0995 331.794 57.0995C332.646 57.2889 333.072 58.5195 333.072 60.7914C333.072 65.3353 335.581 73.145 340.598 84.2207C342.396 88.1019 344.905 93.3558 348.123 99.9822L355.365 114.892L353.519 118.726C352.289 121.187 351.058 123.128 349.827 124.548L348.123 126.535L342.018 121.282C337.095 117.022 331.605 113.188 325.546 109.78C324.126 109.023 323.227 108.644 322.848 108.644C322.375 108.644 321.665 109.638 320.718 111.626C320.624 111.815 320.576 111.957 320.576 112.052C316.6 120.288 314.565 124.879 314.471 125.825C314.565 125.731 316.979 124.122 321.712 120.998L329.096 129.375C321.807 132.405 314.896 136.806 308.365 142.581C308.081 142.865 307.797 143.102 307.513 143.291C307.229 143.575 306.945 143.812 306.661 144.001C306.377 144.19 306.14 144.38 305.951 144.569C305.667 144.853 305.43 145.09 305.241 145.279C304.957 145.468 304.72 145.61 304.531 145.705C304.247 145.894 304.057 146.036 303.963 146.131C303.773 146.226 303.631 146.32 303.537 146.415C303.348 146.51 303.158 146.557 302.969 146.557L302.827 146.699L302.685 146.415C302.685 142.534 303.773 137.753 305.951 132.073C306.045 131.789 306.14 131.553 306.235 131.363C307.844 127.293 310.447 121.66 314.045 114.466C315.938 110.395 316.884 107.934 316.884 107.082C316.884 106.419 316.458 105.899 315.606 105.52L315.464 105.378C305.335 101.308 296.91 99.0356 290.189 98.5623C290 98.5623 289.811 98.5623 289.621 98.5623C289.337 98.4676 289.101 98.4203 288.911 98.4203C288.627 98.4203 288.391 98.4203 288.201 98.4203C287.917 98.3256 287.681 98.2783 287.491 98.2783C287.207 98.1836 286.971 98.1363 286.781 98.1363C286.592 98.0416 286.403 97.9943 286.213 97.9943C286.024 97.8996 285.882 97.8523 285.787 97.8523C285.598 97.8523 285.456 97.805 285.361 97.7103V97.5683C285.361 96.811 287.018 94.0657 290.331 89.3326C290.426 89.2379 290.473 89.1432 290.473 89.0486L293.029 85.6407L298.709 86.0667C302.306 86.3506 307.276 87.5339 313.619 89.6165C314.092 89.8059 314.612 89.9952 315.18 90.1845C315.748 90.2792 316.269 90.4212 316.742 90.6105C317.216 90.7052 317.642 90.8472 318.02 91.0365C318.494 91.1312 318.872 91.2258 319.156 91.3205C319.535 91.4152 319.819 91.4625 320.008 91.4625L320.434 91.6045ZM351.389 129.517L353.235 127.245C354.277 126.015 355.46 124.074 356.785 121.424L358.773 117.874L361.613 120.714L359.767 124.406C358.537 126.867 357.306 128.807 356.075 130.227L354.371 132.357L351.389 129.517ZM380.527 84.3627C379.959 83.8894 379.344 83.3687 378.681 82.8008C378.113 82.1381 377.45 81.5228 376.693 80.9548C376.03 80.3868 375.32 79.8188 374.563 79.2509C373.9 78.5882 373.238 77.9729 372.575 77.4049C371.912 76.8369 371.25 76.2689 370.587 75.701C370.019 75.133 369.451 74.6597 368.883 74.281C368.41 73.8077 367.984 73.429 367.605 73.145C367.227 72.8611 366.895 72.6244 366.611 72.4351L366.185 72.1511C366.185 72.4351 366.801 74.5177 368.031 78.3989C369.735 83.9841 371.013 87.2026 371.865 88.0546C372.906 88.8119 375.32 89.3799 379.107 89.7585C381.379 90.0425 382.846 90.1845 383.509 90.1845C384.645 90.1845 385.26 89.9952 385.355 89.6165C385.26 89.0486 383.651 87.2973 380.527 84.3627ZM350.992 62.9213C350.992 62.5427 351.086 62.022 351.276 61.3594C351.465 60.6967 351.56 60.2708 351.56 60.0814C351.465 59.3241 350.897 58.0462 349.856 56.2475C349.477 55.7742 349.146 55.3009 348.862 54.8276C348.483 54.2596 348.152 53.739 347.868 53.2656C347.489 52.6977 347.205 52.2243 347.016 51.8457C346.732 51.3724 346.448 50.899 346.164 50.4257C345.88 49.9524 345.643 49.5737 345.454 49.2898C345.265 48.9111 345.028 48.5324 344.744 48.1538C344.46 47.6805 344.271 47.3491 344.176 47.1598C344.081 46.9705 343.892 46.6865 343.608 46.3078L343.324 45.7399L341.62 42.474L343.324 39.4921C344.365 37.7881 345.501 36.0368 346.732 34.2382C346.921 34.0489 347.111 33.8596 347.3 33.6702C347.395 33.3862 347.537 33.1969 347.726 33.1022C347.821 32.9129 347.963 32.7709 348.152 32.6763C348.247 32.4869 348.389 32.3449 348.578 32.2503C348.673 32.0609 348.767 31.9663 348.862 31.9663C348.957 31.8716 349.051 31.8243 349.146 31.8243L349.288 31.6823C349.95 31.8716 351.702 34.3329 354.542 39.0661C357.855 44.6512 361.783 49.4791 366.327 53.5496C368.315 55.2536 370.729 57.2415 373.569 59.5135C378.87 63.7733 383.887 68.2225 388.621 72.8611C394.016 78.1622 396.904 81.6648 397.282 83.3687C397.377 83.6527 397.424 83.9367 397.424 84.2207C397.424 86.8713 395.673 90.5159 392.171 95.1544C391.035 96.385 389.236 97.1897 386.775 97.5683C402.016 110.537 411.766 119.01 416.026 122.986L420.712 127.245L421.99 125.399C422.274 125.115 422.7 124.595 423.268 123.838C424.025 122.796 424.546 122.086 424.83 121.708L426.25 120.004L429.515 126.677C431.03 129.612 433.775 134.203 437.751 140.451L442.437 147.835L440.591 151.243C439.36 153.42 438.035 155.361 436.615 157.065L434.769 159.336L420.144 145.847C392.123 119.909 376.646 105.52 373.711 102.68C374.279 104.005 375.226 106.088 376.551 108.928C378.35 112.809 379.391 115.128 379.675 115.886L381.521 121.282L380.101 124.264C377.924 128.618 376.125 130.843 374.705 130.937C373.285 130.937 371.581 127.766 369.593 121.424C369.404 120.856 368.931 119.388 368.173 117.022C366.943 113.141 365.097 107.224 362.635 99.2723C358.754 86.2087 355.583 76.4109 353.122 69.8791C351.702 65.9033 350.992 63.584 350.992 62.9213ZM428.692 116.738C428.029 119.578 426.278 122.749 423.438 126.251C423.059 126.63 422.775 126.961 422.586 127.245L420.74 129.375L417.048 127.529C411.936 125.068 407.061 123.838 402.423 123.838C398.825 123.838 395.654 124.453 392.909 125.683C390.921 126.535 389.927 126.725 389.927 126.251C389.927 125.399 391.726 122.418 395.323 117.306C395.986 116.454 396.459 115.838 396.743 115.46C399.109 112.999 403.843 111.768 410.942 111.768H416.48C415.628 108.076 414.303 102.633 412.504 95.4384C411.179 90.2319 410.232 86.4926 409.664 84.2207C407.96 77.4996 407.014 74.139 406.825 74.139C406.446 74.2337 405.641 75.6063 404.411 78.2569C400.056 86.2087 397.027 90.7052 395.323 91.7465L395.181 91.6045C395.276 90.3739 396.222 87.6286 398.021 83.3687C401.523 75.7956 403.275 68.6012 403.275 61.7854C403.275 59.4188 403.843 57.2889 404.979 55.3956C405.073 55.2062 405.168 55.0643 405.263 54.9696C408.481 50.3311 410.564 47.9171 411.51 47.7278C412.268 47.9171 413.451 52.177 415.06 60.5074C416.954 69.4058 418.799 77.2156 420.598 83.9367C421.355 86.682 422.633 91.8411 424.432 99.4143C426.325 107.082 427.745 112.857 428.692 116.738ZM437.666 125.541C438.707 124.311 439.607 123.648 440.364 123.554C441.595 123.554 443.772 125.731 446.896 130.085C446.99 130.18 447.038 130.275 447.038 130.369L449.452 133.777L447.606 137.469C446.47 139.646 445.097 141.682 443.488 143.575L441.5 145.847L438.66 141.729C437.24 139.552 435.631 137.658 433.832 136.049L431.986 134.487L433.69 131.363C435.015 129.091 436.341 127.151 437.666 125.541Z" fill="#83FA26"/>
<path d="M22.2791 86.4264C22.2792 83.8412 14.3083 66.3915 10.3228 57.9898H0.62854L15.17 93.8587C17.5397 92.4584 22.2791 89.0115 22.2791 86.4264Z" fill="#83FA26"/>
<path d="M420.278 37.0798C419.081 34.7886 397.472 16.7587 390.048 11.1584L387.919 21.9051L417.42 46.9596C418.872 44.6209 421.476 39.3709 420.278 37.0798Z" fill="#83FA26"/>
<path d="M400.218 46.6654C402.214 45.0225 410.621 27.7787 414.575 19.3622L409.512 8.57746L389.962 45.8998C392.549 46.8395 398.222 48.3082 400.218 46.6654Z" fill="#83FA26"/>
<path d="M27.1619 105.667C27.2911 103.085 27.101 102.238 23.5402 93.648L17.4052 100.603L19.6903 112.735C22.127 111.455 27.0328 108.249 27.1619 105.667Z" fill="#83FA26"/>
</svg>
