<svg width="56" height="47" viewBox="0 0 56 47" fill="none" xmlns="http://www.w3.org/2000/svg">
<path d="M32.303 14.8507L10.4309 14.8507C5.75251 14.8 1.78345 18.7353 1.851 23.4306C1.851 25.1365 2.30702 26.6903 3.21906 28.0753C4.11421 29.4434 5.31338 30.4905 6.79967 31.183L1.851 37.5504L11.2754 37.5504L15.5485 32.0106L23.4528 32.0106L23.4528 37.5504L32.303 37.5504L32.303 14.8507ZM12.6604 21.4883L23.4528 21.4883L23.4528 25.3561L12.6604 25.3561C12.1199 25.3561 11.6639 25.1703 11.2923 24.7987C10.9038 24.4102 10.7181 23.9542 10.7181 23.4306C10.7181 22.3497 11.5794 21.4883 12.6604 21.4883Z" fill="#111125"/>
<path d="M23.5146 31.8258L45.3866 31.8258C50.0651 31.8765 54.0341 27.9412 53.9666 23.2459C53.9666 21.54 53.5105 19.9862 52.5985 18.6012C51.7033 17.2332 50.5042 16.186 49.0179 15.4936L53.9666 9.12616L44.5421 9.12616L40.2691 14.666L32.3647 14.666L32.3647 9.12616L23.5145 9.12616L23.5146 31.8258ZM43.1572 25.1882L32.3647 25.1882L32.3647 21.3205L43.1572 21.3205C43.6977 21.3205 44.1537 21.5063 44.5253 21.8778C44.9137 22.2663 45.0995 22.7223 45.0995 23.2459C45.0995 24.3268 44.2381 25.1882 43.1572 25.1882Z" fill="#111125"/>
</svg>
