<svg width="20" height="20" viewBox="0 0 20 20" fill="none" xmlns="http://www.w3.org/2000/svg">
<rect x="0.766052" y="0.699951" width="18.874" height="18.874" rx="3" fill="#1C1B21"/>
<mask id="mask0_987_6897" style="mask-type:luminance" maskUnits="userSpaceOnUse" x="4" y="4" width="12" height="12">
<path d="M15.7676 4.57245H4.63855V15.7015H15.7676V4.57245Z" fill="white"/>
</mask>
<g mask="url(#mask0_987_6897)">
<path d="M10.6717 5.63449V4.57245L11.5895 5.10359L12.5076 5.63449L11.5895 6.16539L10.6717 6.69654V5.63449Z" fill="#3CADEE"/>
<path d="M10.6717 7.75804V6.69598L11.5895 7.22712L12.5076 7.75804L11.5895 8.28893L10.6717 8.82007V7.75804Z" fill="#1B7AD5"/>
<path d="M10.6717 9.88157V8.81952L11.5895 9.35041L12.5076 9.88157L11.5895 10.4125L10.6717 10.9436V9.88157Z" fill="#1B73D1"/>
<path d="M12.5071 6.69626V5.63422L13.4249 6.16511L14.3428 6.69626L13.4249 7.22741L12.5071 7.7583V6.69626Z" fill="#85D2F8"/>
<path d="M12.5071 8.81974V7.75769L13.4249 8.28858L14.3428 8.81974L13.4249 9.35064L12.5071 9.88178V8.81974Z" fill="#248EE0"/>
<path d="M12.5071 10.9433V9.88129L13.4249 10.4122L14.3428 10.9433L13.4249 11.4742L12.5071 12.0054V10.9433Z" fill="#248EE0"/>
<path d="M14.3428 9.88157V10.9436L13.4249 10.4125L12.5071 9.88157L13.4249 9.35041L14.3428 8.81952V9.88157Z" fill="#1769CB"/>
<path d="M14.3428 7.75804V8.82007L13.4249 8.28893L12.5071 7.75804L13.4249 7.22712L14.3428 6.69598V7.75804Z" fill="#1D78D3"/>
<path d="M12.5076 10.9433V12.0054L11.5895 11.4742L10.6717 10.9433L11.5895 10.4122L12.5076 9.88129V10.9433Z" fill="#1769CB"/>
<path d="M12.5076 8.81974V9.88178L11.5895 9.35064L10.6717 8.81974L11.5895 8.28858L12.5076 7.75769V8.81974Z" fill="#1769CB"/>
<path d="M12.5076 6.69626V7.7583L11.5895 7.22741L10.6717 6.69626L11.5895 6.16511L12.5076 5.63422V6.69626Z" fill="#48B7F2"/>
<path d="M6.06396 10.3929V9.33087L6.98178 9.86176L7.8996 10.3929L6.98178 10.9238L6.06396 11.4549V10.3929Z" fill="#3CAEEF"/>
<path d="M6.06396 12.5165V11.4545L6.98178 11.9854L7.8996 12.5165L6.98178 13.0474L6.06396 13.5786V12.5165Z" fill="#1C7DD6"/>
<path d="M7.89905 9.33114V8.2691L8.81686 8.8L9.73494 9.33114L8.81686 9.86203L7.89905 10.3932V9.33114Z" fill="#3CAEEF"/>
<path d="M7.89905 11.4547V10.3926L8.81686 10.9236L9.73494 11.4547L8.81686 11.9856L7.89905 12.5167V11.4547Z" fill="#1B7AD5"/>
<path d="M7.89905 13.5783V12.5162L8.81686 13.0471L9.73494 13.5783L8.81686 14.1092L7.89905 14.6403V13.5783Z" fill="#1B73D1"/>
<path d="M11.5701 13.5783V14.6403L10.6522 14.1092L9.73441 13.5783L10.6522 13.0471L11.5701 12.5162V13.5783Z" fill="#1769CB"/>
<path d="M9.73441 12.5165V11.4545L10.6522 11.9854L11.5701 12.5165L10.6522 13.0474L9.73441 13.5786V12.5165Z" fill="#248EE0"/>
<path d="M9.73441 14.64V13.5779L10.6522 14.1089L11.5701 14.64L10.6522 15.1709L9.73441 15.702V14.64Z" fill="#1D81D9"/>
<path d="M9.73494 12.5165V13.5786L8.81686 13.0474L7.89905 12.5165L8.81686 11.9854L9.73494 11.4545V12.5165Z" fill="#1769CB"/>
<path d="M9.73494 14.6397V15.7017L8.81686 15.1706L7.89905 14.6397L8.81686 14.1086L9.73494 13.5776V14.6397Z" fill="#1769CB"/>
<path d="M9.73494 10.3929V11.4549L8.81686 10.9238L7.89905 10.3929L8.81686 9.86176L9.73494 9.33087V10.3929Z" fill="#48B7F2"/>
<path d="M7.8996 13.5783V14.6403L6.98178 14.1092L6.06396 13.5783L6.98178 13.0471L7.8996 12.5162V13.5783Z" fill="#1E7FD8"/>
<path d="M7.8996 11.4547V12.5167L6.98178 11.9856L6.06396 11.4547L6.98178 10.9236L7.8996 10.3926V11.4547Z" fill="#1D78D3"/>
<path d="M7.8996 9.33114V10.3932L6.98178 9.86203L6.06396 9.33114L6.98178 8.8L7.8996 8.2691V9.33114Z" fill="#6DCAF6"/>
</g>
</svg>
