<svg width="20" height="20" viewBox="0 0 20 20" fill="none" xmlns="http://www.w3.org/2000/svg">
<rect x="0.766052" y="0.543579" width="18.874" height="18.874" rx="3" fill="#312F3D"/>
<mask id="mask0_981_7066" style="mask-type:luminance" maskUnits="userSpaceOnUse" x="4" y="4" width="12" height="12">
<path d="M15.7676 4.41602H4.63855V15.5451H15.7676V4.41602Z" fill="white"/>
</mask>
<g mask="url(#mask0_981_7066)">
<path d="M10.6717 5.47806V4.41602L11.5895 4.94716L12.5076 5.47806L11.5895 6.00896L10.6717 6.5401V5.47806Z" fill="#3CADEE"/>
<path d="M10.6717 7.6016V6.53955L11.5895 7.07069L12.5076 7.6016L11.5895 8.1325L10.6717 8.66363V7.6016Z" fill="#1B7AD5"/>
<path d="M10.6717 9.72514V8.66309L11.5895 9.19398L12.5076 9.72514L11.5895 10.256L10.6717 10.7872V9.72514Z" fill="#1B73D1"/>
<path d="M12.5071 6.53983V5.47778L13.4249 6.00868L14.3428 6.53983L13.4249 7.07097L12.5071 7.60187V6.53983Z" fill="#85D2F8"/>
<path d="M12.5071 8.66325V7.6012L13.4249 8.13209L14.3428 8.66325L13.4249 9.19414L12.5071 9.72528V8.66325Z" fill="#248EE0"/>
<path d="M12.5071 10.7869V9.72485L13.4249 10.2558L14.3428 10.7869L13.4249 11.3178L12.5071 11.8489V10.7869Z" fill="#248EE0"/>
<path d="M14.3428 9.72514V10.7872L13.4249 10.256L12.5071 9.72514L13.4249 9.19398L14.3428 8.66309V9.72514Z" fill="#1769CB"/>
<path d="M14.3428 7.6016V8.66363L13.4249 8.1325L12.5071 7.6016L13.4249 7.07069L14.3428 6.53955V7.6016Z" fill="#1D78D3"/>
<path d="M12.5076 10.7869V11.8489L11.5895 11.3178L10.6717 10.7869L11.5895 10.2558L12.5076 9.72485V10.7869Z" fill="#1769CB"/>
<path d="M12.5076 8.66325V9.72528L11.5895 9.19414L10.6717 8.66325L11.5895 8.13209L12.5076 7.6012V8.66325Z" fill="#1769CB"/>
<path d="M12.5076 6.53983V7.60187L11.5895 7.07097L10.6717 6.53983L11.5895 6.00868L12.5076 5.47778V6.53983Z" fill="#48B7F2"/>
<path d="M6.06396 10.2365V9.17444L6.98178 9.70533L7.8996 10.2365L6.98178 10.7674L6.06396 11.2985V10.2365Z" fill="#3CAEEF"/>
<path d="M6.06396 12.36V11.298L6.98178 11.8289L7.8996 12.36L6.98178 12.8909L6.06396 13.4221V12.36Z" fill="#1C7DD6"/>
<path d="M7.89905 9.1747V8.11267L8.81686 8.64356L9.73494 9.1747L8.81686 9.7056L7.89905 10.2368V9.1747Z" fill="#3CAEEF"/>
<path d="M7.89905 11.2983V10.2362L8.81686 10.7671L9.73494 11.2983L8.81686 11.8292L7.89905 12.3603V11.2983Z" fill="#1B7AD5"/>
<path d="M7.89905 13.4218V12.3597L8.81686 12.8906L9.73494 13.4218L8.81686 13.9527L7.89905 14.4838V13.4218Z" fill="#1B73D1"/>
<path d="M11.5701 13.4218V14.4838L10.6522 13.9527L9.73441 13.4218L10.6522 12.8906L11.5701 12.3597V13.4218Z" fill="#1769CB"/>
<path d="M9.73441 12.36V11.298L10.6522 11.8289L11.5701 12.36L10.6522 12.8909L9.73441 13.4221V12.36Z" fill="#248EE0"/>
<path d="M9.73441 14.4836V13.4215L10.6522 13.9524L11.5701 14.4836L10.6522 15.0145L9.73441 15.5456V14.4836Z" fill="#1D81D9"/>
<path d="M9.73494 12.36V13.4221L8.81686 12.8909L7.89905 12.36L8.81686 11.8289L9.73494 11.298V12.36Z" fill="#1769CB"/>
<path d="M9.73494 14.4833V15.5453L8.81686 15.0142L7.89905 14.4833L8.81686 13.9521L9.73494 13.4212V14.4833Z" fill="#1769CB"/>
<path d="M9.73494 10.2365V11.2985L8.81686 10.7674L7.89905 10.2365L8.81686 9.70533L9.73494 9.17444V10.2365Z" fill="#48B7F2"/>
<path d="M7.8996 13.4218V14.4838L6.98178 13.9527L6.06396 13.4218L6.98178 12.8906L7.8996 12.3597V13.4218Z" fill="#1E7FD8"/>
<path d="M7.8996 11.2983V12.3603L6.98178 11.8292L6.06396 11.2983L6.98178 10.7671L7.8996 10.2362V11.2983Z" fill="#1D78D3"/>
<path d="M7.8996 9.1747V10.2368L6.98178 9.7056L6.06396 9.1747L6.98178 8.64356L7.8996 8.11267V9.1747Z" fill="#6DCAF6"/>
</g>
</svg>
