<svg width="20" height="19" viewBox="0 0 20 19" fill="none" xmlns="http://www.w3.org/2000/svg">
<rect x="0.766052" y="0.121948" width="18.874" height="18.874" rx="3" fill="#FDFDFD"/>
<mask id="mask0_977_6963" style="mask-type:luminance" maskUnits="userSpaceOnUse" x="4" y="3" width="12" height="13">
<path d="M15.7676 3.99445H4.63855V15.1235H15.7676V3.99445Z" fill="white"/>
</mask>
<g mask="url(#mask0_977_6963)">
<path d="M10.6717 5.05649V3.99445L11.5895 4.52559L12.5076 5.05649L11.5895 5.58739L10.6717 6.11853V5.05649Z" fill="#3CADEE"/>
<path d="M10.6717 7.18003V6.11798L11.5895 6.64912L12.5076 7.18003L11.5895 7.71093L10.6717 8.24206V7.18003Z" fill="#1B7AD5"/>
<path d="M10.6717 9.30357V8.24152L11.5895 8.77241L12.5076 9.30357L11.5895 9.83446L10.6717 10.3656V9.30357Z" fill="#1B73D1"/>
<path d="M12.5071 6.11826V5.05621L13.4249 5.58711L14.3428 6.11826L13.4249 6.64941L12.5071 7.1803V6.11826Z" fill="#85D2F8"/>
<path d="M12.5071 8.24174V7.17969L13.4249 7.71058L14.3428 8.24174L13.4249 8.77263L12.5071 9.30377V8.24174Z" fill="#248EE0"/>
<path d="M12.5071 10.3653V9.30328L13.4249 9.8342L14.3428 10.3653L13.4249 10.8962L12.5071 11.4274V10.3653Z" fill="#248EE0"/>
<path d="M14.3428 9.30357V10.3656L13.4249 9.83446L12.5071 9.30357L13.4249 8.77241L14.3428 8.24152V9.30357Z" fill="#1769CB"/>
<path d="M14.3428 7.18003V8.24206L13.4249 7.71093L12.5071 7.18003L13.4249 6.64912L14.3428 6.11798V7.18003Z" fill="#1D78D3"/>
<path d="M12.5076 10.3653V11.4274L11.5895 10.8962L10.6717 10.3653L11.5895 9.8342L12.5076 9.30328V10.3653Z" fill="#1769CB"/>
<path d="M12.5076 8.24174V9.30377L11.5895 8.77263L10.6717 8.24174L11.5895 7.71058L12.5076 7.17969V8.24174Z" fill="#1769CB"/>
<path d="M12.5076 6.11826V7.1803L11.5895 6.64941L10.6717 6.11826L11.5895 5.58711L12.5076 5.05621V6.11826Z" fill="#48B7F2"/>
<path d="M6.06396 9.8149V8.75287L6.98178 9.28376L7.8996 9.8149L6.98178 10.3458L6.06396 10.8769V9.8149Z" fill="#3CAEEF"/>
<path d="M6.06396 11.9385V10.8765L6.98178 11.4074L7.8996 11.9385L6.98178 12.4694L6.06396 13.0005V11.9385Z" fill="#1C7DD6"/>
<path d="M7.89905 8.75313V7.6911L8.81686 8.22199L9.73494 8.75313L8.81686 9.28403L7.89905 9.81519V8.75313Z" fill="#3CAEEF"/>
<path d="M7.89905 10.8767V9.81464L8.81686 10.3456L9.73494 10.8767L8.81686 11.4076L7.89905 11.9387V10.8767Z" fill="#1B7AD5"/>
<path d="M7.89905 13.0003V11.9382L8.81686 12.4691L9.73494 13.0003L8.81686 13.5312L7.89905 14.0623V13.0003Z" fill="#1B73D1"/>
<path d="M11.5701 13.0003V14.0623L10.6522 13.5312L9.73441 13.0003L10.6522 12.4691L11.5701 11.9382V13.0003Z" fill="#1769CB"/>
<path d="M9.73441 11.9385V10.8765L10.6522 11.4074L11.5701 11.9385L10.6522 12.4694L9.73441 13.0005V11.9385Z" fill="#248EE0"/>
<path d="M9.73441 14.062V12.9999L10.6522 13.5309L11.5701 14.062L10.6522 14.5929L9.73441 15.124V14.062Z" fill="#1D81D9"/>
<path d="M9.73494 11.9385V13.0005L8.81686 12.4694L7.89905 11.9385L8.81686 11.4074L9.73494 10.8765V11.9385Z" fill="#1769CB"/>
<path d="M9.73494 14.0617V15.1237L8.81686 14.5926L7.89905 14.0617L8.81686 13.5305L9.73494 12.9996V14.0617Z" fill="#1769CB"/>
<path d="M9.73494 9.8149V10.8769L8.81686 10.3458L7.89905 9.8149L8.81686 9.28376L9.73494 8.75287V9.8149Z" fill="#48B7F2"/>
<path d="M7.8996 13.0003V14.0623L6.98178 13.5312L6.06396 13.0003L6.98178 12.4691L7.8996 11.9382V13.0003Z" fill="#1E7FD8"/>
<path d="M7.8996 10.8767V11.9387L6.98178 11.4076L6.06396 10.8767L6.98178 10.3456L7.8996 9.81464V10.8767Z" fill="#1D78D3"/>
<path d="M7.8996 8.75313V9.81519L6.98178 9.28403L6.06396 8.75313L6.98178 8.22199L7.8996 7.6911V8.75313Z" fill="#6DCAF6"/>
</g>
</svg>
