<svg width="20" height="20" viewBox="0 0 20 20" fill="none" xmlns="http://www.w3.org/2000/svg">
<rect x="0.312073" y="0.543579" width="18.874" height="18.874" rx="3" fill="#312F3D"/>
<path d="M5.73866 7.23462C5.38269 7.23468 5.0358 7.34837 4.74729 7.55953C4.45878 7.77068 4.24334 8.06857 4.13159 8.41083C4.12616 8.42639 4.12164 8.44195 4.11712 8.45751L4.08007 8.60763L3.14005 12.7267H5.50727C5.84279 12.7261 6.17006 12.6213 6.44486 12.4263C6.71965 12.2313 6.92873 11.9557 7.04384 11.6365L7.13423 11.2438L8.04984 7.23462H5.73866Z" fill="#0B67B1"/>
<path d="M10.2046 5.86157C9.83652 5.8616 9.47846 5.98327 9.18483 6.20811C8.8912 6.43295 8.67803 6.74867 8.57768 7.10735C8.56217 7.16124 8.54949 7.21594 8.53972 7.2712L6.98236 14.0996H9.29264C9.66957 14.0996 10.0357 13.9722 10.333 13.7376C10.6304 13.503 10.8419 13.1746 10.9341 12.8044L12.5176 5.86157H10.2046Z" fill="#F27023"/>
<path d="M14.0478 7.23462C13.7045 7.23467 13.3694 7.34047 13.0869 7.53796C12.8043 7.73546 12.5878 8.01531 12.4661 8.34035C12.4534 8.3733 12.41 8.50969 12.41 8.50969L11.4492 12.7267H13.7604C14.1385 12.7265 14.5056 12.5983 14.8034 12.3624C15.1011 12.1266 15.3124 11.7966 15.4036 11.425L16.3581 7.23462H14.0478Z" fill="#0DB04B"/>
<path d="M15.3467 8.72476C15.3042 8.68208 15.2534 8.64869 15.1976 8.62665C15.1418 8.60461 15.0821 8.59439 15.0223 8.59661H12.9289V8.61492C12.9204 8.65342 12.9156 8.69265 12.9144 8.73208C12.9118 8.79154 12.9212 8.85092 12.9422 8.90652C12.9632 8.96211 12.9953 9.01273 13.0365 9.0552C13.0789 9.09813 13.1296 9.13175 13.1854 9.15395C13.2413 9.17616 13.301 9.18648 13.361 9.18426H13.8129L13.3221 11.3399H13.3501C13.5071 11.3379 13.6583 11.2803 13.7776 11.177C13.9028 11.0787 13.9906 10.9397 14.0262 10.7834L14.3877 9.18426H15.4516V9.16504C15.4605 9.12568 15.4653 9.0855 15.4661 9.04513C15.4688 8.98631 15.4597 8.92754 15.4392 8.87244C15.4186 8.81734 15.3872 8.76708 15.3467 8.72476Z" fill="white"/>
<path d="M10.8328 8.593H9.43724H8.85696L8.23239 11.339H8.26041C8.41753 11.3371 8.56893 11.2791 8.68794 11.1752C8.81307 11.0769 8.90086 10.9378 8.9365 10.7816L9.06395 10.2168H10.4731C10.63 10.2153 10.7816 10.1583 10.9015 10.0557C11.0278 9.95604 11.117 9.81602 11.1546 9.65845L11.2703 9.16142C11.2785 9.12167 11.2831 9.08121 11.2838 9.0406C11.2865 8.98161 11.277 8.92271 11.2558 8.86769C11.2346 8.81267 11.2023 8.76275 11.1609 8.72115C11.1177 8.67827 11.0664 8.64479 11.0099 8.62276C10.9535 8.60072 10.8932 8.59059 10.8328 8.593ZM9.30257 9.17973H10.7036L10.5987 9.63008H9.19682L9.30257 9.17973Z" fill="white"/>
<path d="M4.74261 8.75589C4.62812 8.84389 4.54347 8.96576 4.50037 9.10463L3.9924 11.3399H4.02042C4.17713 11.3381 4.32819 11.2804 4.44705 11.177C4.57212 11.0784 4.66015 10.9396 4.69651 10.7834L4.82667 10.2149H5.80104C5.95937 10.212 6.11176 10.1534 6.23218 10.0493C6.35862 9.95049 6.4474 9.81045 6.48345 9.65292L6.48978 9.62454H4.96134L5.06348 9.17694H6.50967C6.66619 9.17501 6.81711 9.1177 6.93629 9.01493C7.0606 8.91454 7.14837 8.77509 7.18576 8.61859L7.19299 8.59021H5.17104C5.01331 8.59202 4.86139 8.65077 4.74261 8.75589Z" fill="white"/>
</svg>
