<svg width="20" height="19" viewBox="0 0 20 19" fill="none" xmlns="http://www.w3.org/2000/svg">
<rect x="0.312073" y="0.121948" width="18.874" height="18.874" rx="3" fill="#FDFDFD"/>
<path d="M5.73866 6.81299C5.38269 6.81305 5.0358 6.92674 4.74729 7.1379C4.45878 7.34905 4.24334 7.64694 4.13159 7.9892C4.12616 8.00476 4.12164 8.02032 4.11712 8.03588L4.08007 8.186L3.14005 12.305H5.50727C5.84279 12.3045 6.17006 12.1996 6.44486 12.0047C6.71965 11.8097 6.92873 11.534 7.04384 11.2149L7.13423 10.8222L8.04984 6.81299H5.73866Z" fill="#0B67B1"/>
<path d="M10.2046 5.43994C9.83652 5.43997 9.47846 5.56164 9.18483 5.78648C8.8912 6.01132 8.67803 6.32704 8.57768 6.68572C8.56217 6.73961 8.54949 6.79431 8.53972 6.84957L6.98236 13.678H9.29264C9.66957 13.678 10.0357 13.5506 10.333 13.3159C10.6304 13.0813 10.8419 12.7529 10.9341 12.3828L12.5176 5.43994H10.2046Z" fill="#F27023"/>
<path d="M14.0478 6.81299C13.7045 6.81304 13.3694 6.91884 13.0869 7.11633C12.8043 7.31383 12.5878 7.59367 12.4661 7.91872C12.4534 7.95167 12.41 8.08806 12.41 8.08806L11.4492 12.305H13.7604C14.1385 12.3049 14.5056 12.1767 14.8034 11.9408C15.1011 11.7049 15.3124 11.375 15.4036 11.0034L16.3581 6.81299H14.0478Z" fill="#0DB04B"/>
<path d="M15.3467 8.30313C15.3042 8.26045 15.2534 8.22706 15.1976 8.20502C15.1418 8.18298 15.0821 8.17276 15.0223 8.17498H12.9289V8.19329C12.9204 8.23179 12.9156 8.27102 12.9144 8.31045C12.9118 8.36991 12.9212 8.42929 12.9422 8.48489C12.9632 8.54048 12.9953 8.5911 13.0365 8.63357C13.0789 8.6765 13.1296 8.71012 13.1854 8.73232C13.2413 8.75453 13.301 8.76484 13.361 8.76263H13.8129L13.3221 10.9183H13.3501C13.5071 10.9163 13.6583 10.8586 13.7776 10.7553C13.9028 10.6571 13.9906 10.518 14.0262 10.3617L14.3877 8.76263H15.4516V8.74341C15.4605 8.70405 15.4653 8.66386 15.4661 8.6235C15.4688 8.56468 15.4597 8.5059 15.4392 8.4508C15.4186 8.3957 15.3872 8.34545 15.3467 8.30313Z" fill="white"/>
<path d="M10.8328 8.17131H9.43724H8.85696L8.23239 10.9173H8.26041C8.41753 10.9154 8.56893 10.8574 8.68794 10.7535C8.81307 10.6552 8.90086 10.5161 8.9365 10.3599L9.06395 9.79512H10.4731C10.63 9.79356 10.7816 9.73659 10.9015 9.63402C11.0278 9.53435 11.117 9.39433 11.1546 9.23676L11.2703 8.73973C11.2785 8.69997 11.2831 8.65952 11.2838 8.61891C11.2865 8.55992 11.277 8.50102 11.2558 8.446C11.2346 8.39098 11.2023 8.34106 11.1609 8.29945C11.1177 8.25658 11.0664 8.2231 11.0099 8.20107C10.9535 8.17903 10.8932 8.1689 10.8328 8.17131ZM9.30257 8.75804H10.7036L10.5987 9.20839H9.19682L9.30257 8.75804Z" fill="white"/>
<path d="M4.74261 8.33426C4.62812 8.42226 4.54347 8.54413 4.50037 8.683L3.9924 10.9183H4.02042C4.17713 10.9165 4.32819 10.8588 4.44705 10.7553C4.57212 10.6568 4.66015 10.5179 4.69651 10.3617L4.82667 9.79331H5.80104C5.95937 9.79034 6.11176 9.73178 6.23218 9.62763C6.35862 9.52886 6.4474 9.38882 6.48345 9.23129L6.48978 9.20291H4.96134L5.06348 8.75531H6.50967C6.66619 8.75338 6.81711 8.69607 6.93629 8.5933C7.0606 8.49291 7.14837 8.35346 7.18576 8.19695L7.19299 8.16858H5.17104C5.01331 8.17039 4.86139 8.22914 4.74261 8.33426Z" fill="white"/>
</svg>
