<svg width="20" height="20" viewBox="0 0 20 20" fill="none" xmlns="http://www.w3.org/2000/svg">
<rect x="0.312073" y="0.699951" width="18.874" height="18.874" rx="3" fill="#1C1B21"/>
<path d="M5.73866 7.39099C5.38269 7.39105 5.0358 7.50474 4.74729 7.7159C4.45878 7.92706 4.24334 8.22494 4.13159 8.5672C4.12616 8.58276 4.12164 8.59832 4.11712 8.61389L4.08007 8.764L3.14005 12.883H5.50727C5.84279 12.8825 6.17006 12.7776 6.44486 12.5827C6.71965 12.3877 6.92873 12.112 7.04384 11.7929L7.13423 11.4002L8.04984 7.39099H5.73866Z" fill="#0B67B1"/>
<path d="M10.2046 6.01794C9.83652 6.01797 9.47846 6.13964 9.18483 6.36448C8.8912 6.58932 8.67803 6.90504 8.57768 7.26372C8.56217 7.31762 8.54949 7.37231 8.53972 7.42757L6.98236 14.256H9.29264C9.66957 14.256 10.0357 14.1286 10.333 13.8939C10.6304 13.6593 10.8419 13.3309 10.9341 12.9608L12.5176 6.01794H10.2046Z" fill="#F27023"/>
<path d="M14.0478 7.39099C13.7045 7.39104 13.3694 7.49684 13.0869 7.69433C12.8043 7.89183 12.5878 8.17168 12.4661 8.49672C12.4534 8.52967 12.41 8.66606 12.41 8.66606L11.4492 12.883H13.7604C14.1385 12.8829 14.5056 12.7547 14.8034 12.5188C15.1011 12.2829 15.3124 11.953 15.4036 11.5814L16.3581 7.39099H14.0478Z" fill="#0DB04B"/>
<path d="M15.3467 8.88113C15.3042 8.83845 15.2534 8.80506 15.1976 8.78302C15.1418 8.76098 15.0821 8.75076 15.0223 8.75298H12.9289V8.77129C12.9204 8.80979 12.9156 8.84902 12.9144 8.88845C12.9118 8.94791 12.9212 9.0073 12.9422 9.06289C12.9632 9.11848 12.9953 9.1691 13.0365 9.21157C13.0789 9.2545 13.1296 9.28812 13.1854 9.31033C13.2413 9.33253 13.301 9.34285 13.361 9.34063H13.8129L13.3221 11.4963H13.3501C13.5071 11.4943 13.6583 11.4366 13.7776 11.3333C13.9028 11.2351 13.9906 11.096 14.0262 10.9397L14.3877 9.34063H15.4516V9.32141C15.4605 9.28205 15.4653 9.24187 15.4661 9.2015C15.4688 9.14268 15.4597 9.08391 15.4392 9.02881C15.4186 8.97371 15.3872 8.92345 15.3467 8.88113Z" fill="white"/>
<path d="M10.8328 8.74931H9.43724H8.85696L8.23239 11.4953H8.26041C8.41753 11.4934 8.56893 11.4354 8.68794 11.3315C8.81307 11.2332 8.90086 11.0942 8.9365 10.9379L9.06395 10.3731H10.4731C10.63 10.3716 10.7816 10.3146 10.9015 10.212C11.0278 10.1124 11.117 9.97233 11.1546 9.81476L11.2703 9.31773C11.2785 9.27798 11.2831 9.23753 11.2838 9.19691C11.2865 9.13792 11.277 9.07902 11.2558 9.024C11.2346 8.96898 11.2023 8.91906 11.1609 8.87746C11.1177 8.83459 11.0664 8.8011 11.0099 8.77907C10.9535 8.75703 10.8932 8.7469 10.8328 8.74931ZM9.30257 9.33604H10.7036L10.5987 9.78639H9.19682L9.30257 9.33604Z" fill="white"/>
<path d="M4.74261 8.91226C4.62812 9.00026 4.54347 9.12213 4.50037 9.261L3.9924 11.4963H4.02042C4.17713 11.4945 4.32819 11.4368 4.44705 11.3333C4.57212 11.2348 4.66015 11.0959 4.69651 10.9397L4.82667 10.3713H5.80104C5.95937 10.3683 6.11176 10.3098 6.23218 10.2056C6.35862 10.1069 6.4474 9.96682 6.48345 9.80929L6.48978 9.78092H4.96134L5.06348 9.33332H6.50967C6.66619 9.33138 6.81711 9.27407 6.93629 9.1713C7.0606 9.07091 7.14837 8.93146 7.18576 8.77496L7.19299 8.74658H5.17104C5.01331 8.7484 4.86139 8.80714 4.74261 8.91226Z" fill="white"/>
</svg>
